<svg xmlns="http://www.w3.org/2000/svg" xmlns:xlink="http://www.w3.org/1999/xlink" xmlns:lucid="lucid" width="1480" height="1234"><g transform="translate(-380 -1398)" lucid:page-tab-id="HWEp-vi-RSFO"><path d="M0 0h2334.16v2955H0z" fill="#fff"/><path d="M1434.7 1920h246.46v190H1434.7z" stroke="#333" stroke-width="2" fill="#fff"/><path d="M1434.7 1957.6h246.46m-246.45 37.6h246.46" stroke="#333" stroke-width="2" fill="none"/><use xlink:href="#a" transform="matrix(1,0,0,1,1442.7120581342708,1928) translate(79.3 14.6)"/><use xlink:href="#b" transform="matrix(1,0,0,1,1446.7120581342708,2003.1999999999998) translate(0 15.233333333333325)"/><use xlink:href="#c" transform="matrix(1,0,0,1,1446.7120581342708,2003.1999999999998) translate(16.074074074074076 15.233333333333325)"/><use xlink:href="#b" transform="matrix(1,0,0,1,1446.7120581342708,2003.1999999999998) translate(0 40.56666666666666)"/><use xlink:href="#d" transform="matrix(1,0,0,1,1446.7120581342708,2003.1999999999998) translate(16.074074074074076 40.56666666666666)"/><use xlink:href="#b" transform="matrix(1,0,0,1,1446.7120581342708,2003.1999999999998) translate(0 65.9)"/><use xlink:href="#e" transform="matrix(1,0,0,1,1446.7120581342708,2003.1999999999998) translate(16.074074074074076 65.9)"/><use xlink:href="#b" transform="matrix(1,0,0,1,1446.7120581342708,2003.1999999999998) translate(0 91.23333333333335)"/><use xlink:href="#f" transform="matrix(1,0,0,1,1446.7120581342708,2003.1999999999998) translate(16.074074074074076 91.23333333333335)"/><path d="M500 1833.07h246.44v216H500z" stroke="#333" stroke-width="2" fill="#fff"/><path d="M500 1870.67h246.44M500 1909.07h246.44" stroke="#333" stroke-width="2" fill="none"/><use xlink:href="#g" transform="matrix(1,0,0,1,507.99999999999994,1841.0677290836657) translate(90.55 14.6)"/><use xlink:href="#h" transform="matrix(1,0,0,1,511.99999999999994,1878.6677290836656) translate(0 15.233333333333334)"/><use xlink:href="#i" transform="matrix(1,0,0,1,511.99999999999994,1878.6677290836656) translate(61.08148148148149 15.233333333333334)"/><use xlink:href="#b" transform="matrix(1,0,0,1,511.99999999999994,1917.0677290836657) translate(0 15.066666666666654)"/><use xlink:href="#c" transform="matrix(1,0,0,1,511.99999999999994,1917.0677290836657) translate(16.074074074074076 15.066666666666654)"/><use xlink:href="#b" transform="matrix(1,0,0,1,511.99999999999994,1917.0677290836657) translate(0 40.39999999999999)"/><use xlink:href="#j" transform="matrix(1,0,0,1,511.99999999999994,1917.0677290836657) translate(16.074074074074076 40.39999999999999)"/><use xlink:href="#b" transform="matrix(1,0,0,1,511.99999999999994,1917.0677290836657) translate(0 65.73333333333333)"/><use xlink:href="#k" transform="matrix(1,0,0,1,511.99999999999994,1917.0677290836657) translate(16.074074074074076 65.73333333333333)"/><use xlink:href="#b" transform="matrix(1,0,0,1,511.99999999999994,1917.0677290836657) translate(0 91.06666666666666)"/><use xlink:href="#l" transform="matrix(1,0,0,1,511.99999999999994,1917.0677290836657) translate(16.074074074074076 91.06666666666666)"/><use xlink:href="#b" transform="matrix(1,0,0,1,511.99999999999994,1917.0677290836657) translate(0 116.4)"/><use xlink:href="#m" transform="matrix(1,0,0,1,511.99999999999994,1917.0677290836657) translate(16.074074074074076 116.4)"/><path d="M1001.95 1440h301.36v758h-301.35z" stroke="#333" stroke-width="2" fill="#fff"/><path d="M1001.95 1477.6h301.36m-301.35 175.73h301.36" stroke="#333" stroke-width="2" fill="none"/><use xlink:href="#n" transform="matrix(1,0,0,1,1009.9485685400399,1448) translate(118.025 14.6)"/><use xlink:href="#o" transform="matrix(1,0,0,1,1013.9485685400399,1485.6) translate(0 15.066666666666661)"/><use xlink:href="#p" transform="matrix(1,0,0,1,1013.9485685400399,1485.6) translate(11.355555555555558 15.066666666666661)"/><use xlink:href="#q" transform="matrix(1,0,0,1,1013.9485685400399,1485.6) translate(60.04444444444445 15.066666666666661)"/><use xlink:href="#b" transform="matrix(1,0,0,1,1013.9485685400399,1485.6) translate(0 40.4)"/><use xlink:href="#p" transform="matrix(1,0,0,1,1013.9485685400399,1485.6) translate(16.074074074074076 40.4)"/><use xlink:href="#r" transform="matrix(1,0,0,1,1013.9485685400399,1485.6) translate(64.76296296296297 40.4)"/><use xlink:href="#o" transform="matrix(1,0,0,1,1013.9485685400399,1485.6) translate(0 62.800000000000004)"/><use xlink:href="#p" transform="matrix(1,0,0,1,1013.9485685400399,1485.6) translate(11.355555555555558 62.800000000000004)"/><use xlink:href="#s" transform="matrix(1,0,0,1,1013.9485685400399,1485.6) translate(60.04444444444445 62.800000000000004)"/><use xlink:href="#b" transform="matrix(1,0,0,1,1013.9485685400399,1485.6) translate(0 85.2)"/><use xlink:href="#p" transform="matrix(1,0,0,1,1013.9485685400399,1485.6) translate(16.074074074074076 85.2)"/><use xlink:href="#t" transform="matrix(1,0,0,1,1013.9485685400399,1485.6) translate(64.76296296296297 85.2)"/><use xlink:href="#o" transform="matrix(1,0,0,1,1013.9485685400399,1485.6) translate(0 107.60000000000001)"/><use xlink:href="#p" transform="matrix(1,0,0,1,1013.9485685400399,1485.6) translate(11.355555555555558 107.60000000000001)"/><use xlink:href="#u" transform="matrix(1,0,0,1,1013.9485685400399,1485.6) translate(60.04444444444445 107.60000000000001)"/><use xlink:href="#o" transform="matrix(1,0,0,1,1013.9485685400399,1485.6) translate(0 130)"/><use xlink:href="#p" transform="matrix(1,0,0,1,1013.9485685400399,1485.6) translate(11.355555555555558 130)"/><use xlink:href="#v" transform="matrix(1,0,0,1,1013.9485685400399,1485.6) translate(60.04444444444445 130)"/><use xlink:href="#o" transform="matrix(1,0,0,1,1013.9485685400399,1485.6) translate(0 152.4)"/><use xlink:href="#p" transform="matrix(1,0,0,1,1013.9485685400399,1485.6) translate(11.355555555555558 152.4)"/><use xlink:href="#w" transform="matrix(1,0,0,1,1013.9485685400399,1485.6) translate(60.04444444444445 152.4)"/><use xlink:href="#b" transform="matrix(1,0,0,1,1013.9485685400399,1661.3333333333333) translate(0 15.400000000000032)"/><use xlink:href="#c" transform="matrix(1,0,0,1,1013.9485685400399,1661.3333333333333) translate(16.074074074074076 15.400000000000032)"/><use xlink:href="#b" transform="matrix(1,0,0,1,1013.9485685400399,1661.3333333333333) translate(0 40.73333333333337)"/><use xlink:href="#x" transform="matrix(1,0,0,1,1013.9485685400399,1661.3333333333333) translate(16.074074074074076 40.73333333333337)"/><use xlink:href="#b" transform="matrix(1,0,0,1,1013.9485685400399,1661.3333333333333) translate(0 66.0666666666667)"/><use xlink:href="#y" transform="matrix(1,0,0,1,1013.9485685400399,1661.3333333333333) translate(16.074074074074076 66.0666666666667)"/><use xlink:href="#b" transform="matrix(1,0,0,1,1013.9485685400399,1661.3333333333333) translate(0 91.40000000000005)"/><use xlink:href="#z" transform="matrix(1,0,0,1,1013.9485685400399,1661.3333333333333) translate(16.074074074074076 91.40000000000005)"/><use xlink:href="#b" transform="matrix(1,0,0,1,1013.9485685400399,1661.3333333333333) translate(0 116.73333333333339)"/><use xlink:href="#A" transform="matrix(1,0,0,1,1013.9485685400399,1661.3333333333333) translate(16.074074074074076 116.73333333333339)"/><use xlink:href="#b" transform="matrix(1,0,0,1,1013.9485685400399,1661.3333333333333) translate(0 142.06666666666672)"/><use xlink:href="#B" transform="matrix(1,0,0,1,1013.9485685400399,1661.3333333333333) translate(16.074074074074076 142.06666666666672)"/><use xlink:href="#b" transform="matrix(1,0,0,1,1013.9485685400399,1661.3333333333333) translate(0 167.40000000000006)"/><use xlink:href="#C" transform="matrix(1,0,0,1,1013.9485685400399,1661.3333333333333) translate(16.074074074074076 167.40000000000006)"/><use xlink:href="#b" transform="matrix(1,0,0,1,1013.9485685400399,1661.3333333333333) translate(0 192.7333333333334)"/><use xlink:href="#D" transform="matrix(1,0,0,1,1013.9485685400399,1661.3333333333333) translate(16.074074074074076 192.7333333333334)"/><use xlink:href="#b" transform="matrix(1,0,0,1,1013.9485685400399,1661.3333333333333) translate(0 218.06666666666675)"/><use xlink:href="#E" transform="matrix(1,0,0,1,1013.9485685400399,1661.3333333333333) translate(16.074074074074076 218.06666666666675)"/><use xlink:href="#b" transform="matrix(1,0,0,1,1013.9485685400399,1661.3333333333333) translate(0 243.4000000000001)"/><use xlink:href="#F" transform="matrix(1,0,0,1,1013.9485685400399,1661.3333333333333) translate(16.074074074074076 243.4000000000001)"/><use xlink:href="#b" transform="matrix(1,0,0,1,1013.9485685400399,1661.3333333333333) translate(0 268.7333333333334)"/><use xlink:href="#G" transform="matrix(1,0,0,1,1013.9485685400399,1661.3333333333333) translate(16.074074074074076 268.7333333333334)"/><use xlink:href="#b" transform="matrix(1,0,0,1,1013.9485685400399,1661.3333333333333) translate(0 294.0666666666668)"/><use xlink:href="#H" transform="matrix(1,0,0,1,1013.9485685400399,1661.3333333333333) translate(16.074074074074076 294.0666666666668)"/><use xlink:href="#b" transform="matrix(1,0,0,1,1013.9485685400399,1661.3333333333333) translate(0 319.4000000000001)"/><use xlink:href="#I" transform="matrix(1,0,0,1,1013.9485685400399,1661.3333333333333) translate(16.074074074074076 319.4000000000001)"/><use xlink:href="#b" transform="matrix(1,0,0,1,1013.9485685400399,1661.3333333333333) translate(0 344.7333333333334)"/><use xlink:href="#J" transform="matrix(1,0,0,1,1013.9485685400399,1661.3333333333333) translate(16.074074074074076 344.7333333333334)"/><use xlink:href="#b" transform="matrix(1,0,0,1,1013.9485685400399,1661.3333333333333) translate(0 370.0666666666667)"/><use xlink:href="#K" transform="matrix(1,0,0,1,1013.9485685400399,1661.3333333333333) translate(16.074074074074076 370.0666666666667)"/><use xlink:href="#b" transform="matrix(1,0,0,1,1013.9485685400399,1661.3333333333333) translate(0 395.40000000000003)"/><use xlink:href="#L" transform="matrix(1,0,0,1,1013.9485685400399,1661.3333333333333) translate(16.074074074074076 395.40000000000003)"/><use xlink:href="#b" transform="matrix(1,0,0,1,1013.9485685400399,1661.3333333333333) translate(0 420.73333333333335)"/><use xlink:href="#M" transform="matrix(1,0,0,1,1013.9485685400399,1661.3333333333333) translate(16.074074074074076 420.73333333333335)"/><use xlink:href="#b" transform="matrix(1,0,0,1,1013.9485685400399,1661.3333333333333) translate(0 446.06666666666666)"/><use xlink:href="#N" transform="matrix(1,0,0,1,1013.9485685400399,1661.3333333333333) translate(16.074074074074076 446.06666666666666)"/><use xlink:href="#b" transform="matrix(1,0,0,1,1013.9485685400399,1661.3333333333333) translate(0 471.4)"/><use xlink:href="#O" transform="matrix(1,0,0,1,1013.9485685400399,1661.3333333333333) translate(16.074074074074076 471.4)"/><use xlink:href="#o" transform="matrix(1,0,0,1,1013.9485685400399,1661.3333333333333) translate(0 496.7333333333333)"/><use xlink:href="#P" transform="matrix(1,0,0,1,1013.9485685400399,1661.3333333333333) translate(11.355555555555558 496.7333333333333)"/><use xlink:href="#o" transform="matrix(1,0,0,1,1013.9485685400399,1661.3333333333333) translate(0 522.0666666666666)"/><use xlink:href="#Q" transform="matrix(1,0,0,1,1013.9485685400399,1661.3333333333333) translate(11.355555555555558 522.0666666666666)"/><path d="M933.02 2516.73h230.02v75H933.02z" stroke="#333" stroke-width="2" fill="#fff"/><path d="M933.02 2554.33h230.02" stroke="#333" stroke-width="2" fill="none"/><g><use xlink:href="#R" transform="matrix(1,0,0,1,941.0235565780138,2524.733067729084) translate(87.325 14.6)"/></g><path d="M677.86 2267.5h85v207.07h-230V2241.5h138zm-145 0h145" stroke="#333" stroke-width="2" fill="#fff"/><g><use xlink:href="#S" transform="matrix(1,0,0,1,540.8590920061772,2241.5001826115117) translate(35.025 16.6)"/></g><path d="M549.3 2319.2h82.14v38H549.3z" stroke="#333" stroke-width="2" fill="#fff"/><g><use xlink:href="#T" transform="matrix(1,0,0,1,557.2886380092658,2327.1894256394003) translate(14.575 14.6)"/></g><path d="M664.3 2319.2h82.14v38H664.3z" stroke="#333" stroke-width="2" fill="#fff"/><g><use xlink:href="#U" transform="matrix(1,0,0,1,672.295460030886,2327.1894256394003) translate(12.024999999999999 14.6)"/></g><path d="M582.15 2381.34h115v38h-115z" stroke="#333" stroke-width="2" fill="#fff"/><g><use xlink:href="#V" transform="matrix(1,0,0,1,590.147730015443,2389.340820061711) translate(-6.475000000000001 14.6)"/></g><path d="M1541.77 2433.97h100.08v121.6h-271.08v-147.6h163zm-171 0h171" stroke="#333" stroke-width="2" fill="#fff"/><g><use xlink:href="#W" transform="matrix(1,0,0,1,1378.7659381636952,2407.96812749004) translate(36.55 16.6)"/></g><path d="M1543.28 2461.57h73.93v38h-73.92z" stroke="#333" stroke-width="2" fill="#fff"/><g><use xlink:href="#X" transform="matrix(1,0,0,1,1551.2761711961257,2469.5737051792635) translate(1.0249999999999986 14.6)"/></g><path d="M1378.98 2460.4h131.44v38h-131.44z" stroke="#333" stroke-width="2" fill="#fff"/><g><use xlink:href="#Y" transform="matrix(1,0,0,1,1386.9807111652397,2468.4083665337744) translate(-5.925000000000004 14.6)"/></g><path d="M1164 2250.37h154.95v225.5H900v-251.5h251zm-264 0h264" stroke="#333" stroke-width="2" fill="#fff"/><g><use xlink:href="#Z" transform="matrix(1,0,0,1,908,2224.370227196895) translate(99.525 16.6)"/></g><path d="M1062.12 2346.26h115v38h-115z" stroke="#333" stroke-width="2" fill="#fff"/><g><use xlink:href="#aa" transform="matrix(1,0,0,1,1070.1204419289622,2354.263993553237) translate(-10.875000000000007 14.6)"/></g><path d="M1187.52 2413.7h115v42h-115z" stroke="#333" stroke-width="2" fill="#fff"/><g><use xlink:href="#ab" transform="matrix(1,0,0,1,1195.5170550540502,2421.7075607063907) translate(15.549999999999997 17.266666666666666)"/></g><path d="M932.07 2412.15h99.37v38h-99.37z" stroke="#333" stroke-width="2" fill="#fff"/><g><use xlink:href="#ac" transform="matrix(1,0,0,1,940.072621171566,2420.1537758458335) translate(12.075 14.6)"/></g><path d="M938.7 2289.4h82.95v38H938.7z" stroke="#333" stroke-width="2" fill="#fff"/><g><use xlink:href="#ad" transform="matrix(1,0,0,1,946.7144525038876,2297.4047718617694) translate(9.075 14.6)"/></g><path d="M1220.38 2362.43h82.93v38h-82.92z" stroke="#333" stroke-width="2" fill="#fff"/><g><use xlink:href="#ae" transform="matrix(1,0,0,1,1228.3761470602276,2370.4326603079844) translate(14.55 14.6)"/></g><path d="M1187.52 2289.4h115v38h-115z" stroke="#333" stroke-width="2" fill="#fff"/><g><use xlink:href="#af" transform="matrix(1,0,0,1,1195.5170550540502,2297.4047718617694) translate(2.0749999999999957 14.6)"/></g><path d="M916.04 2350.78h131.43v38H916.04z" stroke="#333" stroke-width="2" fill="#fff"/><g><use xlink:href="#ag" transform="matrix(1,0,0,1,924.036310585783,2358.7792738538014) translate(-10.400000000000006 14.6)"/></g><path d="M1051.97 2412.15h115v38h-115z" stroke="#333" stroke-width="2" fill="#fff"/><g><use xlink:href="#ah" transform="matrix(1,0,0,1,1059.9733005285693,2420.1537758458335) translate(11.549999999999997 14.6)"/></g><path d="M1064.7 2289.4h89.56v38h-89.57z" stroke="#333" stroke-width="2" fill="#fff"/><g><use xlink:href="#ai" transform="matrix(1,0,0,1,1072.6886954481915,2297.4047718617694) translate(5.549999999999997 14.6)"/></g><path d="M1109.48 2477.36v6.94c0 6.62-5.38 12-12 12h-46.4c-1.68 0-3.05 1.36-3.05 3.05" stroke="#333" fill="none"/><path d="M1109.98 2477.37h-1v-.5h1z" fill="#333"/><path d="M1048.03 2514.12l-4.63-14.27h9.27z" stroke="#333" fill="#fff"/><path d="M764.37 2450.48h44c6.63 0 12 5.37 12 12v79.75c0 6.63 5.38 12 12 12h83.27" stroke="#333" fill="none"/><path d="M764.4 2450.98h-.53v-1h.52z" fill="#333"/><path d="M930.4 2554.23l-14.26 4.64v-9.27z" stroke="#333" fill="#fff"/><path d="M1369.27 2449.1h-2.93c-6.63 0-12 5.36-12 12v81.13c0 6.63-5.38 12-12 12h-161.92" stroke="#333" fill="none"/><path d="M1369.77 2449.6h-.52v-1h.52z" fill="#333"/><path d="M1165.66 2554.23l14.26-4.63v9.27z" stroke="#333" fill="#fff"/><path d="M665.9 2051.57v120.56c0 6.63 5.36 12 12 12h15.47c6.63 0 12 5.37 12 12v120.56" stroke="#333" stroke-width="3" fill="none"/><path d="M667.4 2051.6h-3v-1.53h3zM706.87 2318.2h-3v-1.55h3z" fill="#333"/><path d="M633.75 2051.57v154.56c0 5 4.07 9.07 9.08 9.07 5.02 0 9.08 4.07 9.08 9.08v154.56" stroke="#333" stroke-width="3" fill="none"/><path d="M635.25 2051.6h-3v-1.53h3zM653.4 2380.34h-3v-1.54h3z" fill="#333"/><path d="M583.62 2051.57v120.56c0 6.63 5.38 12 12 12h11.4c6.63 0 12 5.37 12 12v120.56" stroke="#333" stroke-width="3" fill="none"/><path d="M585.12 2051.6h-3v-1.53h3zM620.52 2318.2h-3v-1.55h3z" fill="#333"/><path d="M1117.48 2200.5v47.52c0 6.63 5.37 12 12 12H1158c6.63 0 12 5.38 12 12v54.03c0 6.63 5.37 12 12 12h6c6.63 0 12 5.37 12 12v35.04c0 2.54 2.07 4.6 4.6 4.6 2.56 0 4.63 2.07 4.63 4.62v16.9" stroke="#333" stroke-width="3" fill="none"/><path d="M1118.98 2200.54h-3V2199h3zM1210.73 2412.7h-3v-1.53h3z" fill="#333"/><path d="M999.45 2112.3h-200c-6.63 0-12 5.37-12 12v189.5c0 6.63-5.38 12-12 12h-26.5" stroke="#333" stroke-width="3" fill="none"/><path d="M1000.95 2113.8h-1.54v-3h1.55zM748.98 2327.3h-1.54v-3h1.54z" fill="#333"/><path d="M1305.8 2172.04h26.5c6.64 0 12 5.37 12 12v179.5c0 6.62-5.36 12-12 12h-26.5" stroke="#333" stroke-width="3" fill="none"/><path d="M1305.85 2173.54h-1.54v-3h1.55zM1305.85 2377.04h-1.54v-3h1.55z" fill="#333"/><path d="M999.45 2159.22h-137.9c-6.63 0-12 5.37-12 12v217.12c0 6.63-5.37 12-12 12h-137.9" stroke="#333" stroke-width="3" fill="none"/><path d="M1000.95 2160.72h-1.54v-3h1.55zM699.7 2401.84h-1.55v-3h1.54z" fill="#333"/><path d="M1481.08 2112.5V2328c0 6.63-5.38 12-12 12h-410c-4.07 0-7.36 3.3-7.36 7.36v5.6c0 .98-.78 1.76-1.75 1.76" stroke="#333" stroke-width="3" fill="none"/><path d="M1482.58 2112.54h-3V2111h3zM1050 2356.22h-1.53v-3h1.54z" fill="#333"/><path d="M748.94 2028.4H808c6.63 0 12 5.37 12 12v327.95c0 6.63 5.37 12 12 12h81.54" stroke="#333" stroke-width="3" fill="none"/><path d="M748.98 2029.9h-1.54v-3h1.54zM915.04 2381.85h-1.54v-3h1.54z" fill="#333"/><path d="M1216.4 2200.5v31.2c0 6.63 5.38 12 12 12h5.5c6.62 0 12 5.37 12 12v31.2" stroke="#333" stroke-width="3" fill="none"/><path d="M1217.9 2200.54h-3V2199h3zM1247.4 2288.4h-3v-1.53h3z" fill="#333"/><path d="M1077.7 2200.5v86.4" stroke="#333" stroke-width="3" fill="none"/><path d="M1079.2 2200.54h-3V2199h3zM1079.2 2288.4h-3v-1.53h3z" fill="#333"/><defs><path fill="#333" d="M275 0h-61l-44-196L126 0H64L0-248h53L97-49l45-199h58l43 199 44-199h52" id="aj"/><path fill="#333" d="M110-194c64 0 96 36 96 99 0 64-35 99-97 99-61 0-95-36-95-99 0-62 34-99 96-99zm-1 164c35 0 45-28 45-65 0-40-10-65-43-65-34 0-45 26-45 65 0 36 10 65 43 65" id="ak"/><path fill="#333" d="M135-150c-39-12-60 13-60 57V0H25l-1-190h47c2 13-1 29 3 40 6-28 27-53 61-41v41" id="al"/><path fill="#333" d="M147 0L96-86 75-71V0H25v-261h50v150l67-79h53l-66 74L201 0h-54" id="am"/><path fill="#333" d="M85 4C-2 5 27-109 22-190h50c7 57-23 150 33 157 60-5 35-97 40-157h50l1 190h-47c-2-12 1-28-3-38-12 25-28 42-61 42" id="an"/><path fill="#333" d="M115-3C79 11 28 4 28-45v-112H4v-33h27l15-45h31v45h36v33H77v99c-1 23 16 31 38 25v30" id="ao"/><g id="a"><use transform="matrix(0.05,0,0,0.05,0,0)" xlink:href="#aj"/><use transform="matrix(0.05,0,0,0.05,16.599999999999998,0)" xlink:href="#ak"/><use transform="matrix(0.05,0,0,0.05,27.549999999999997,0)" xlink:href="#al"/><use transform="matrix(0.05,0,0,0.05,34.55,0)" xlink:href="#am"/><use transform="matrix(0.05,0,0,0.05,44.55,0)" xlink:href="#ak"/><use transform="matrix(0.05,0,0,0.05,55.5,0)" xlink:href="#an"/><use transform="matrix(0.05,0,0,0.05,66.45,0)" xlink:href="#ao"/></g><path d="M118-107v75H92v-75H18v-26h74v-75h26v75h74v26h-74" id="ap"/><use transform="matrix(0.05185185185185186,0,0,0.05185185185185186,0,0)" xlink:href="#ap" id="b"/><path d="M-5 72V49h209v23H-5" id="aq"/><path d="M96-169c-40 0-48 33-48 73s9 75 48 75c24 0 41-14 43-38l32 2c-6 37-31 61-74 61-59 0-76-41-82-99-10-93 101-131 147-64 4 7 5 14 7 22l-32 3c-4-21-16-35-41-35" id="ar"/><path d="M100-194c62-1 85 37 85 99 1 63-27 99-86 99S16-35 15-95c0-66 28-99 85-99zM99-20c44 1 53-31 53-75 0-43-8-75-51-75s-53 32-53 75 10 74 51 75" id="as"/><path d="M117-194c89-4 53 116 60 194h-32v-121c0-31-8-49-39-48C34-167 62-67 57 0H25l-1-190h30c1 10-1 24 2 32 11-22 29-35 61-36" id="at"/><path d="M135-143c-3-34-86-38-87 0 15 53 115 12 119 90S17 21 10-45l28-5c4 36 97 45 98 0-10-56-113-15-118-90-4-57 82-63 122-42 12 7 21 19 24 35" id="au"/><path d="M59-47c-2 24 18 29 38 22v24C64 9 27 4 27-40v-127H5v-23h24l9-43h21v43h35v23H59v120" id="av"/><path d="M114-163C36-179 61-72 57 0H25l-1-190h30c1 12-1 29 2 39 6-27 23-49 58-41v29" id="aw"/><path d="M84 4C-5 8 30-112 23-190h32v120c0 31 7 50 39 49 72-2 45-101 50-169h31l1 190h-30c-1-10 1-25-2-33-11 22-28 36-60 37" id="ax"/><g id="c"><use transform="matrix(0.05185185185185186,0,0,0.05185185185185186,0,0)" xlink:href="#aq"/><use transform="matrix(0.05185185185185186,0,0,0.05185185185185186,10.370370370370372,0)" xlink:href="#aq"/><use transform="matrix(0.05185185185185186,0,0,0.05185185185185186,20.740740740740744,0)" xlink:href="#ar"/><use transform="matrix(0.05185185185185186,0,0,0.05185185185185186,30.074074074074076,0)" xlink:href="#as"/><use transform="matrix(0.05185185185185186,0,0,0.05185185185185186,40.44444444444445,0)" xlink:href="#at"/><use transform="matrix(0.05185185185185186,0,0,0.05185185185185186,50.814814814814824,0)" xlink:href="#au"/><use transform="matrix(0.05185185185185186,0,0,0.05185185185185186,60.14814814814815,0)" xlink:href="#av"/><use transform="matrix(0.05185185185185186,0,0,0.05185185185185186,65.33333333333334,0)" xlink:href="#aw"/><use transform="matrix(0.05185185185185186,0,0,0.05185185185185186,71.5037037037037,0)" xlink:href="#ax"/><use transform="matrix(0.05185185185185186,0,0,0.05185185185185186,81.87407407407407,0)" xlink:href="#ar"/><use transform="matrix(0.05185185185185186,0,0,0.05185185185185186,91.2074074074074,0)" xlink:href="#av"/></g><path d="M141-36C126-15 110 5 73 4 37 3 15-17 15-53c-1-64 63-63 125-63 3-35-9-54-41-54-24 1-41 7-42 31l-33-3c5-37 33-52 76-52 45 0 72 20 72 64v82c-1 20 7 32 28 27v20c-31 9-61-2-59-35zM48-53c0 20 12 33 32 33 41-3 63-29 60-74-43 2-92-5-92 41" id="ay"/><path d="M108 0H70L1-190h34L89-25l56-165h34" id="az"/><path d="M100-194c63 0 86 42 84 106H49c0 40 14 67 53 68 26 1 43-12 49-29l28 8c-11 28-37 45-77 45C44 4 14-33 15-96c1-61 26-98 85-98zm52 81c6-60-76-77-97-28-3 7-6 17-6 28h103" id="aA"/><path d="M30-248c87 1 191-15 191 75 0 78-77 80-158 76V0H30v-248zm33 125c57 0 124 11 124-50 0-59-68-47-124-48v98" id="aB"/><path d="M177-190C167-65 218 103 67 71c-23-6-38-20-44-43l32-5c15 47 100 32 89-28v-30C133-14 115 1 83 1 29 1 15-40 15-95c0-56 16-97 71-98 29-1 48 16 59 35 1-10 0-23 2-32h30zM94-22c36 0 50-32 50-73 0-42-14-75-50-75-39 0-46 34-46 75s6 73 46 73" id="aC"/><path d="M210-169c-67 3-38 105-44 169h-31v-121c0-29-5-50-35-48C34-165 62-65 56 0H25l-1-190h30c1 10-1 24 2 32 10-44 99-50 107 0 11-21 27-35 58-36 85-2 47 119 55 194h-31v-121c0-29-5-49-35-48" id="aD"/><g id="d"><use transform="matrix(0.05185185185185186,0,0,0.05185185185185186,0,0)" xlink:href="#au"/><use transform="matrix(0.05185185185185186,0,0,0.05185185185185186,9.333333333333334,0)" xlink:href="#ay"/><use transform="matrix(0.05185185185185186,0,0,0.05185185185185186,19.703703703703706,0)" xlink:href="#az"/><use transform="matrix(0.05185185185185186,0,0,0.05185185185185186,29.03703703703704,0)" xlink:href="#aA"/><use transform="matrix(0.05185185185185186,0,0,0.05185185185185186,39.40740740740741,0)" xlink:href="#aB"/><use transform="matrix(0.05185185185185186,0,0,0.05185185185185186,51.85185185185186,0)" xlink:href="#aw"/><use transform="matrix(0.05185185185185186,0,0,0.05185185185185186,58.022222222222226,0)" xlink:href="#as"/><use transform="matrix(0.05185185185185186,0,0,0.05185185185185186,68.3925925925926,0)" xlink:href="#aC"/><use transform="matrix(0.05185185185185186,0,0,0.05185185185185186,78.76296296296297,0)" xlink:href="#aw"/><use transform="matrix(0.05185185185185186,0,0,0.05185185185185186,84.93333333333334,0)" xlink:href="#ay"/><use transform="matrix(0.05185185185185186,0,0,0.05185185185185186,95.3037037037037,0)" xlink:href="#aD"/></g><path d="M205 0l-28-72H64L36 0H1l101-248h38L239 0h-34zm-38-99l-47-123c-12 45-31 82-46 123h93" id="aE"/><g id="e"><use transform="matrix(0.05185185185185186,0,0,0.05185185185185186,0,0)" xlink:href="#au"/><use transform="matrix(0.05185185185185186,0,0,0.05185185185185186,9.333333333333334,0)" xlink:href="#ay"/><use transform="matrix(0.05185185185185186,0,0,0.05185185185185186,19.703703703703706,0)" xlink:href="#az"/><use transform="matrix(0.05185185185185186,0,0,0.05185185185185186,29.03703703703704,0)" xlink:href="#aA"/><use transform="matrix(0.05185185185185186,0,0,0.05185185185185186,39.40740740740741,0)" xlink:href="#aE"/><use transform="matrix(0.05185185185185186,0,0,0.05185185185185186,51.488888888888894,0)" xlink:href="#az"/><use transform="matrix(0.05185185185185186,0,0,0.05185185185185186,60.82222222222223,0)" xlink:href="#aA"/><use transform="matrix(0.05185185185185186,0,0,0.05185185185185186,71.1925925925926,0)" xlink:href="#aw"/><use transform="matrix(0.05185185185185186,0,0,0.05185185185185186,77.36296296296297,0)" xlink:href="#ay"/><use transform="matrix(0.05185185185185186,0,0,0.05185185185185186,87.73333333333333,0)" xlink:href="#aC"/><use transform="matrix(0.05185185185185186,0,0,0.05185185185185186,98.1037037037037,0)" xlink:href="#aA"/><use transform="matrix(0.05185185185185186,0,0,0.05185185185185186,108.47407407407407,0)" xlink:href="#aB"/><use transform="matrix(0.05185185185185186,0,0,0.05185185185185186,120.91851851851851,0)" xlink:href="#aw"/><use transform="matrix(0.05185185185185186,0,0,0.05185185185185186,127.08888888888887,0)" xlink:href="#as"/><use transform="matrix(0.05185185185185186,0,0,0.05185185185185186,137.45925925925926,0)" xlink:href="#aC"/><use transform="matrix(0.05185185185185186,0,0,0.05185185185185186,147.82962962962964,0)" xlink:href="#aw"/><use transform="matrix(0.05185185185185186,0,0,0.05185185185185186,154,0)" xlink:href="#ay"/><use transform="matrix(0.05185185185185186,0,0,0.05185185185185186,164.37037037037038,0)" xlink:href="#aD"/></g><g id="f"><use transform="matrix(0.05185185185185186,0,0,0.05185185185185186,0,0)" xlink:href="#aC"/><use transform="matrix(0.05185185185185186,0,0,0.05185185185185186,10.370370370370372,0)" xlink:href="#aA"/><use transform="matrix(0.05185185185185186,0,0,0.05185185185185186,20.740740740740744,0)" xlink:href="#at"/><use transform="matrix(0.05185185185185186,0,0,0.05185185185185186,31.111111111111114,0)" xlink:href="#aA"/><use transform="matrix(0.05185185185185186,0,0,0.05185185185185186,41.48148148148149,0)" xlink:href="#aw"/><use transform="matrix(0.05185185185185186,0,0,0.05185185185185186,47.65185185185186,0)" xlink:href="#ay"/><use transform="matrix(0.05185185185185186,0,0,0.05185185185185186,58.022222222222226,0)" xlink:href="#av"/><use transform="matrix(0.05185185185185186,0,0,0.05185185185185186,63.207407407407416,0)" xlink:href="#aA"/><use transform="matrix(0.05185185185185186,0,0,0.05185185185185186,73.57777777777778,0)" xlink:href="#aB"/><use transform="matrix(0.05185185185185186,0,0,0.05185185185185186,86.02222222222223,0)" xlink:href="#aw"/><use transform="matrix(0.05185185185185186,0,0,0.05185185185185186,92.1925925925926,0)" xlink:href="#as"/><use transform="matrix(0.05185185185185186,0,0,0.05185185185185186,102.56296296296297,0)" xlink:href="#aC"/><use transform="matrix(0.05185185185185186,0,0,0.05185185185185186,112.93333333333335,0)" xlink:href="#aw"/><use transform="matrix(0.05185185185185186,0,0,0.05185185185185186,119.10370370370369,0)" xlink:href="#ay"/><use transform="matrix(0.05185185185185186,0,0,0.05185185185185186,129.47407407407408,0)" xlink:href="#aD"/></g><path fill="#333" d="M186 0v-106H76V0H24v-248h52v99h110v-99h50V0h-50" id="aF"/><path fill="#333" d="M220-157c-53 9-28 100-34 157h-49v-107c1-27-5-49-29-50C55-147 81-57 75 0H25l-1-190h47c2 12-1 28 3 38 10-53 101-56 108 0 13-22 24-43 59-42 82 1 51 116 57 194h-49v-107c-1-25-5-48-29-50" id="aG"/><path fill="#333" d="M185-48c-13 30-37 53-82 52C43 2 14-33 14-96s30-98 90-98c62 0 83 45 84 108H66c0 31 8 55 39 56 18 0 30-7 34-22zm-45-69c5-46-57-63-70-21-2 6-4 13-4 21h74" id="aH"/><g id="g"><use transform="matrix(0.05,0,0,0.05,0,0)" xlink:href="#aF"/><use transform="matrix(0.05,0,0,0.05,12.950000000000001,0)" xlink:href="#ak"/><use transform="matrix(0.05,0,0,0.05,23.900000000000002,0)" xlink:href="#aG"/><use transform="matrix(0.05,0,0,0.05,39.900000000000006,0)" xlink:href="#aH"/></g><path d="M115-194c55 1 70 41 70 98S169 2 115 4C84 4 66-9 55-30l1 105H24l-1-265h31l2 30c10-21 28-34 59-34zm-8 174c40 0 45-34 45-75s-6-73-45-74c-42 0-51 32-51 76 0 43 10 73 51 73" id="aI"/><path d="M24-231v-30h32v30H24zM24 0v-190h32V0H24" id="aJ"/><g id="h"><use transform="matrix(0.05185185185185186,0,0,0.05185185185185186,0,0)" xlink:href="#aI"/><use transform="matrix(0.05185185185185186,0,0,0.05185185185185186,10.370370370370372,0)" xlink:href="#aw"/><use transform="matrix(0.05185185185185186,0,0,0.05185185185185186,16.540740740740745,0)" xlink:href="#aJ"/><use transform="matrix(0.05185185185185186,0,0,0.05185185185185186,20.63703703703704,0)" xlink:href="#az"/><use transform="matrix(0.05185185185185186,0,0,0.05185185185185186,29.970370370370375,0)" xlink:href="#ay"/><use transform="matrix(0.05185185185185186,0,0,0.05185185185185186,40.34074074074075,0)" xlink:href="#av"/><use transform="matrix(0.05185185185185186,0,0,0.05185185185185186,45.52592592592593,0)" xlink:href="#aA"/></g><path d="M85-194c31 0 48 13 60 33l-1-100h32l1 261h-30c-2-10 0-23-3-31C134-8 116 4 85 4 32 4 16-35 15-94c0-66 23-100 70-100zm9 24c-40 0-46 34-46 75 0 40 6 74 45 74 42 0 51-32 51-76 0-42-9-74-50-73" id="aK"/><path d="M24 0v-261h32V0H24" id="aL"/><g id="i"><use transform="matrix(0.05185185185185186,0,0,0.05185185185185186,0,0)" xlink:href="#aD"/><use transform="matrix(0.05185185185185186,0,0,0.05185185185185186,15.503703703703705,0)" xlink:href="#as"/><use transform="matrix(0.05185185185185186,0,0,0.05185185185185186,25.874074074074077,0)" xlink:href="#aK"/><use transform="matrix(0.05185185185185186,0,0,0.05185185185185186,36.24444444444445,0)" xlink:href="#aA"/><use transform="matrix(0.05185185185185186,0,0,0.05185185185185186,46.61481481481482,0)" xlink:href="#aL"/><use transform="matrix(0.05185185185185186,0,0,0.05185185185185186,50.711111111111116,0)" xlink:href="#aq"/><use transform="matrix(0.05185185185185186,0,0,0.05185185185185186,61.08148148148149,0)" xlink:href="#ax"/><use transform="matrix(0.05185185185185186,0,0,0.05185185185185186,71.45185185185186,0)" xlink:href="#au"/><use transform="matrix(0.05185185185185186,0,0,0.05185185185185186,80.78518518518518,0)" xlink:href="#aA"/><use transform="matrix(0.05185185185185186,0,0,0.05185185185185186,91.15555555555555,0)" xlink:href="#aw"/></g><path d="M141 0L90-78 38 0H4l68-98-65-92h35l48 74 47-74h35l-64 92 68 98h-35" id="aM"/><g id="j"><use transform="matrix(0.05185185185185186,0,0,0.05185185185185186,0,0)" xlink:href="#aJ"/><use transform="matrix(0.05185185185185186,0,0,0.05185185185185186,4.0962962962962965,0)" xlink:href="#at"/><use transform="matrix(0.05185185185185186,0,0,0.05185185185185186,14.466666666666669,0)" xlink:href="#aK"/><use transform="matrix(0.05185185185185186,0,0,0.05185185185185186,24.837037037037042,0)" xlink:href="#aA"/><use transform="matrix(0.05185185185185186,0,0,0.05185185185185186,35.207407407407416,0)" xlink:href="#aM"/></g><g id="k"><use transform="matrix(0.05185185185185186,0,0,0.05185185185185186,0,0)" xlink:href="#aA"/><use transform="matrix(0.05185185185185186,0,0,0.05185185185185186,10.370370370370372,0)" xlink:href="#aw"/><use transform="matrix(0.05185185185185186,0,0,0.05185185185185186,16.540740740740745,0)" xlink:href="#aw"/><use transform="matrix(0.05185185185185186,0,0,0.05185185185185186,22.711111111111116,0)" xlink:href="#as"/><use transform="matrix(0.05185185185185186,0,0,0.05185185185185186,33.08148148148149,0)" xlink:href="#aw"/></g><path d="M33 0v-248h34V0H33" id="aN"/><g id="l"><use transform="matrix(0.05185185185185186,0,0,0.05185185185185186,0,0)" xlink:href="#aL"/><use transform="matrix(0.05185185185185186,0,0,0.05185185185185186,4.0962962962962965,0)" xlink:href="#as"/><use transform="matrix(0.05185185185185186,0,0,0.05185185185185186,14.466666666666669,0)" xlink:href="#aC"/><use transform="matrix(0.05185185185185186,0,0,0.05185185185185186,24.837037037037042,0)" xlink:href="#aC"/><use transform="matrix(0.05185185185185186,0,0,0.05185185185185186,35.207407407407416,0)" xlink:href="#aA"/><use transform="matrix(0.05185185185185186,0,0,0.05185185185185186,45.57777777777779,0)" xlink:href="#aK"/><use transform="matrix(0.05185185185185186,0,0,0.05185185185185186,55.948148148148164,0)" xlink:href="#aN"/><use transform="matrix(0.05185185185185186,0,0,0.05185185185185186,61.133333333333354,0)" xlink:href="#at"/></g><path d="M233-177c-1 41-23 64-60 70L243 0h-38l-65-103H63V0H30v-248c88 3 205-21 203 71zM63-129c60-2 137 13 137-47 0-61-80-42-137-45v92" id="aO"/><path d="M9 0v-24l116-142H16v-24h144v24L44-24h123V0H9" id="aP"/><g id="m"><use transform="matrix(0.05185185185185186,0,0,0.05185185185185186,0,0)" xlink:href="#aC"/><use transform="matrix(0.05185185185185186,0,0,0.05185185185185186,10.370370370370372,0)" xlink:href="#aA"/><use transform="matrix(0.05185185185185186,0,0,0.05185185185185186,20.740740740740744,0)" xlink:href="#at"/><use transform="matrix(0.05185185185185186,0,0,0.05185185185185186,31.111111111111114,0)" xlink:href="#aA"/><use transform="matrix(0.05185185185185186,0,0,0.05185185185185186,41.48148148148149,0)" xlink:href="#aw"/><use transform="matrix(0.05185185185185186,0,0,0.05185185185185186,47.65185185185186,0)" xlink:href="#ay"/><use transform="matrix(0.05185185185185186,0,0,0.05185185185185186,58.022222222222226,0)" xlink:href="#av"/><use transform="matrix(0.05185185185185186,0,0,0.05185185185185186,63.207407407407416,0)" xlink:href="#as"/><use transform="matrix(0.05185185185185186,0,0,0.05185185185185186,73.57777777777778,0)" xlink:href="#aw"/><use transform="matrix(0.05185185185185186,0,0,0.05185185185185186,79.74814814814815,0)" xlink:href="#aO"/><use transform="matrix(0.05185185185185186,0,0,0.05185185185185186,93.17777777777778,0)" xlink:href="#aA"/><use transform="matrix(0.05185185185185186,0,0,0.05185185185185186,103.54814814814814,0)" xlink:href="#aP"/></g><path fill="#333" d="M238-95c0 69-44 99-111 99C63 4 22-25 22-93v-155h51v151c-1 38 19 59 55 60 90 1 49-130 58-211h52v153" id="aQ"/><path fill="#333" d="M137-138c1-29-70-34-71-4 15 46 118 7 119 86 1 83-164 76-172 9l43-7c4 19 20 25 44 25 33 8 57-30 24-41C81-84 22-81 20-136c-2-80 154-74 161-7" id="aR"/><g id="n"><use transform="matrix(0.05,0,0,0.05,0,0)" xlink:href="#aQ"/><use transform="matrix(0.05,0,0,0.05,12.950000000000001,0)" xlink:href="#aR"/><use transform="matrix(0.05,0,0,0.05,22.950000000000003,0)" xlink:href="#aH"/><use transform="matrix(0.05,0,0,0.05,32.95,0)" xlink:href="#al"/><use transform="matrix(0.05,0,0,0.05,39.95,0)" xlink:href="#aR"/></g><path d="M16-82v-28h88v28H16" id="aS"/><use transform="matrix(0.05185185185185186,0,0,0.05185185185185186,0,0)" xlink:href="#aS" id="o"/><g id="p"><use transform="matrix(0.05185185185185186,0,0,0.05185185185185186,0,0)" xlink:href="#au"/><use transform="matrix(0.05185185185185186,0,0,0.05185185185185186,9.333333333333334,0)" xlink:href="#av"/><use transform="matrix(0.05185185185185186,0,0,0.05185185185185186,14.51851851851852,0)" xlink:href="#ay"/><use transform="matrix(0.05185185185185186,0,0,0.05185185185185186,24.888888888888893,0)" xlink:href="#av"/><use transform="matrix(0.05185185185185186,0,0,0.05185185185185186,30.074074074074076,0)" xlink:href="#aJ"/><use transform="matrix(0.05185185185185186,0,0,0.05185185185185186,34.17037037037038,0)" xlink:href="#ar"/></g><path d="M101-234c-31-9-42 10-38 44h38v23H63V0H32v-167H5v-23h27c-7-52 17-82 69-68v24" id="aT"/><g id="q"><use transform="matrix(0.05185185185185186,0,0,0.05185185185185186,0,0)" xlink:href="#aT"/><use transform="matrix(0.05185185185185186,0,0,0.05185185185185186,5.185185185185186,0)" xlink:href="#ax"/><use transform="matrix(0.05185185185185186,0,0,0.05185185185185186,15.555555555555557,0)" xlink:href="#aL"/><use transform="matrix(0.05185185185185186,0,0,0.05185185185185186,19.651851851851852,0)" xlink:href="#aL"/><use transform="matrix(0.05185185185185186,0,0,0.05185185185185186,23.748148148148147,0)" xlink:href="#at"/><use transform="matrix(0.05185185185185186,0,0,0.05185185185185186,34.11851851851852,0)" xlink:href="#ay"/><use transform="matrix(0.05185185185185186,0,0,0.05185185185185186,44.488888888888894,0)" xlink:href="#aD"/><use transform="matrix(0.05185185185185186,0,0,0.05185185185185186,59.9925925925926,0)" xlink:href="#aA"/><use transform="matrix(0.05185185185185186,0,0,0.05185185185185186,70.36296296296297,0)" xlink:href="#aq"/><use transform="matrix(0.05185185185185186,0,0,0.05185185185185186,80.73333333333333,0)" xlink:href="#az"/><use transform="matrix(0.05185185185185186,0,0,0.05185185185185186,90.06666666666666,0)" xlink:href="#ay"/><use transform="matrix(0.05185185185185186,0,0,0.05185185185185186,100.43703703703703,0)" xlink:href="#aL"/><use transform="matrix(0.05185185185185186,0,0,0.05185185185185186,104.53333333333333,0)" xlink:href="#aJ"/><use transform="matrix(0.05185185185185186,0,0,0.05185185185185186,108.62962962962965,0)" xlink:href="#aK"/><use transform="matrix(0.05185185185185186,0,0,0.05185185185185186,118.99999999999999,0)" xlink:href="#ay"/><use transform="matrix(0.05185185185185186,0,0,0.05185185185185186,129.37037037037038,0)" xlink:href="#av"/><use transform="matrix(0.05185185185185186,0,0,0.05185185185185186,134.55555555555557,0)" xlink:href="#aJ"/><use transform="matrix(0.05185185185185186,0,0,0.05185185185185186,138.65185185185186,0)" xlink:href="#as"/><use transform="matrix(0.05185185185185186,0,0,0.05185185185185186,149.02222222222224,0)" xlink:href="#at"/></g><g id="r"><use transform="matrix(0.05185185185185186,0,0,0.05185185185185186,0,0)" xlink:href="#ax"/><use transform="matrix(0.05185185185185186,0,0,0.05185185185185186,10.370370370370372,0)" xlink:href="#au"/><use transform="matrix(0.05185185185185186,0,0,0.05185185185185186,19.703703703703706,0)" xlink:href="#aA"/><use transform="matrix(0.05185185185185186,0,0,0.05185185185185186,30.074074074074076,0)" xlink:href="#aw"/><use transform="matrix(0.05185185185185186,0,0,0.05185185185185186,36.24444444444445,0)" xlink:href="#at"/><use transform="matrix(0.05185185185185186,0,0,0.05185185185185186,46.61481481481482,0)" xlink:href="#ay"/><use transform="matrix(0.05185185185185186,0,0,0.05185185185185186,56.985185185185195,0)" xlink:href="#aD"/><use transform="matrix(0.05185185185185186,0,0,0.05185185185185186,72.4888888888889,0)" xlink:href="#aA"/><use transform="matrix(0.05185185185185186,0,0,0.05185185185185186,82.85925925925926,0)" xlink:href="#aq"/><use transform="matrix(0.05185185185185186,0,0,0.05185185185185186,93.22962962962963,0)" xlink:href="#az"/><use transform="matrix(0.05185185185185186,0,0,0.05185185185185186,102.56296296296296,0)" xlink:href="#ay"/><use transform="matrix(0.05185185185185186,0,0,0.05185185185185186,112.93333333333332,0)" xlink:href="#aL"/><use transform="matrix(0.05185185185185186,0,0,0.05185185185185186,117.02962962962962,0)" xlink:href="#aJ"/><use transform="matrix(0.05185185185185186,0,0,0.05185185185185186,121.12592592592591,0)" xlink:href="#aK"/><use transform="matrix(0.05185185185185186,0,0,0.05185185185185186,131.4962962962963,0)" xlink:href="#ay"/><use transform="matrix(0.05185185185185186,0,0,0.05185185185185186,141.86666666666667,0)" xlink:href="#av"/><use transform="matrix(0.05185185185185186,0,0,0.05185185185185186,147.05185185185186,0)" xlink:href="#aJ"/><use transform="matrix(0.05185185185185186,0,0,0.05185185185185186,151.14814814814815,0)" xlink:href="#as"/><use transform="matrix(0.05185185185185186,0,0,0.05185185185185186,161.51851851851853,0)" xlink:href="#at"/></g><g id="s"><use transform="matrix(0.05185185185185186,0,0,0.05185185185185186,0,0)" xlink:href="#aA"/><use transform="matrix(0.05185185185185186,0,0,0.05185185185185186,10.370370370370372,0)" xlink:href="#aD"/><use transform="matrix(0.05185185185185186,0,0,0.05185185185185186,25.874074074074077,0)" xlink:href="#ay"/><use transform="matrix(0.05185185185185186,0,0,0.05185185185185186,36.24444444444445,0)" xlink:href="#aJ"/><use transform="matrix(0.05185185185185186,0,0,0.05185185185185186,40.34074074074074,0)" xlink:href="#aL"/><use transform="matrix(0.05185185185185186,0,0,0.05185185185185186,44.43703703703704,0)" xlink:href="#aq"/><use transform="matrix(0.05185185185185186,0,0,0.05185185185185186,54.80740740740741,0)" xlink:href="#az"/><use transform="matrix(0.05185185185185186,0,0,0.05185185185185186,64.14074074074074,0)" xlink:href="#ay"/><use transform="matrix(0.05185185185185186,0,0,0.05185185185185186,74.5111111111111,0)" xlink:href="#aL"/><use transform="matrix(0.05185185185185186,0,0,0.05185185185185186,78.60740740740741,0)" xlink:href="#aJ"/><use transform="matrix(0.05185185185185186,0,0,0.05185185185185186,82.70370370370371,0)" xlink:href="#aK"/><use transform="matrix(0.05185185185185186,0,0,0.05185185185185186,93.07407407407408,0)" xlink:href="#ay"/><use transform="matrix(0.05185185185185186,0,0,0.05185185185185186,103.44444444444444,0)" xlink:href="#av"/><use transform="matrix(0.05185185185185186,0,0,0.05185185185185186,108.62962962962965,0)" xlink:href="#aJ"/><use transform="matrix(0.05185185185185186,0,0,0.05185185185185186,112.72592592592594,0)" xlink:href="#as"/><use transform="matrix(0.05185185185185186,0,0,0.05185185185185186,123.09629629629632,0)" xlink:href="#at"/></g><path d="M206 0h-36l-40-164L89 0H53L-1-190h32L70-26l43-164h34l41 164 42-164h31" id="aU"/><g id="t"><use transform="matrix(0.05185185185185186,0,0,0.05185185185185186,0,0)" xlink:href="#aI"/><use transform="matrix(0.05185185185185186,0,0,0.05185185185185186,10.370370370370372,0)" xlink:href="#ay"/><use transform="matrix(0.05185185185185186,0,0,0.05185185185185186,20.740740740740744,0)" xlink:href="#au"/><use transform="matrix(0.05185185185185186,0,0,0.05185185185185186,30.074074074074076,0)" xlink:href="#au"/><use transform="matrix(0.05185185185185186,0,0,0.05185185185185186,39.40740740740741,0)" xlink:href="#aU"/><use transform="matrix(0.05185185185185186,0,0,0.05185185185185186,52.83703703703704,0)" xlink:href="#as"/><use transform="matrix(0.05185185185185186,0,0,0.05185185185185186,63.207407407407416,0)" xlink:href="#aw"/><use transform="matrix(0.05185185185185186,0,0,0.05185185185185186,69.3777777777778,0)" xlink:href="#aK"/><use transform="matrix(0.05185185185185186,0,0,0.05185185185185186,79.74814814814816,0)" xlink:href="#aq"/><use transform="matrix(0.05185185185185186,0,0,0.05185185185185186,90.11851851851853,0)" xlink:href="#az"/><use transform="matrix(0.05185185185185186,0,0,0.05185185185185186,99.45185185185186,0)" xlink:href="#ay"/><use transform="matrix(0.05185185185185186,0,0,0.05185185185185186,109.82222222222224,0)" xlink:href="#aL"/><use transform="matrix(0.05185185185185186,0,0,0.05185185185185186,113.91851851851852,0)" xlink:href="#aJ"/><use transform="matrix(0.05185185185185186,0,0,0.05185185185185186,118.01481481481483,0)" xlink:href="#aK"/><use transform="matrix(0.05185185185185186,0,0,0.05185185185185186,128.3851851851852,0)" xlink:href="#ay"/><use transform="matrix(0.05185185185185186,0,0,0.05185185185185186,138.7555555555556,0)" xlink:href="#av"/><use transform="matrix(0.05185185185185186,0,0,0.05185185185185186,143.94074074074078,0)" xlink:href="#aJ"/><use transform="matrix(0.05185185185185186,0,0,0.05185185185185186,148.03703703703707,0)" xlink:href="#as"/><use transform="matrix(0.05185185185185186,0,0,0.05185185185185186,158.40740740740745,0)" xlink:href="#at"/></g><g id="u"><use transform="matrix(0.05185185185185186,0,0,0.05185185185185186,0,0)" xlink:href="#aC"/><use transform="matrix(0.05185185185185186,0,0,0.05185185185185186,10.370370370370372,0)" xlink:href="#aA"/><use transform="matrix(0.05185185185185186,0,0,0.05185185185185186,20.740740740740744,0)" xlink:href="#at"/><use transform="matrix(0.05185185185185186,0,0,0.05185185185185186,31.111111111111114,0)" xlink:href="#aK"/><use transform="matrix(0.05185185185185186,0,0,0.05185185185185186,41.48148148148149,0)" xlink:href="#aA"/><use transform="matrix(0.05185185185185186,0,0,0.05185185185185186,51.85185185185186,0)" xlink:href="#aw"/><use transform="matrix(0.05185185185185186,0,0,0.05185185185185186,58.022222222222226,0)" xlink:href="#aq"/><use transform="matrix(0.05185185185185186,0,0,0.05185185185185186,68.3925925925926,0)" xlink:href="#az"/><use transform="matrix(0.05185185185185186,0,0,0.05185185185185186,77.72592592592594,0)" xlink:href="#ay"/><use transform="matrix(0.05185185185185186,0,0,0.05185185185185186,88.0962962962963,0)" xlink:href="#aL"/><use transform="matrix(0.05185185185185186,0,0,0.05185185185185186,92.1925925925926,0)" xlink:href="#aJ"/><use transform="matrix(0.05185185185185186,0,0,0.05185185185185186,96.2888888888889,0)" xlink:href="#aK"/><use transform="matrix(0.05185185185185186,0,0,0.05185185185185186,106.65925925925927,0)" xlink:href="#ay"/><use transform="matrix(0.05185185185185186,0,0,0.05185185185185186,117.02962962962964,0)" xlink:href="#av"/><use transform="matrix(0.05185185185185186,0,0,0.05185185185185186,122.21481481481483,0)" xlink:href="#aJ"/><use transform="matrix(0.05185185185185186,0,0,0.05185185185185186,126.31111111111113,0)" xlink:href="#as"/><use transform="matrix(0.05185185185185186,0,0,0.05185185185185186,136.6814814814815,0)" xlink:href="#at"/></g><path d="M106-169C34-169 62-67 57 0H25v-261h32l-1 103c12-21 28-36 61-36 89 0 53 116 60 194h-32v-121c2-32-8-49-39-48" id="aV"/><g id="v"><use transform="matrix(0.05185185185185186,0,0,0.05185185185185186,0,0)" xlink:href="#aV"/><use transform="matrix(0.05185185185185186,0,0,0.05185185185185186,10.370370370370372,0)" xlink:href="#aA"/><use transform="matrix(0.05185185185185186,0,0,0.05185185185185186,20.740740740740744,0)" xlink:href="#aJ"/><use transform="matrix(0.05185185185185186,0,0,0.05185185185185186,24.837037037037042,0)" xlink:href="#aC"/><use transform="matrix(0.05185185185185186,0,0,0.05185185185185186,35.207407407407416,0)" xlink:href="#aV"/><use transform="matrix(0.05185185185185186,0,0,0.05185185185185186,45.57777777777779,0)" xlink:href="#av"/><use transform="matrix(0.05185185185185186,0,0,0.05185185185185186,50.76296296296297,0)" xlink:href="#aq"/><use transform="matrix(0.05185185185185186,0,0,0.05185185185185186,61.133333333333354,0)" xlink:href="#ax"/><use transform="matrix(0.05185185185185186,0,0,0.05185185185185186,71.50370370370372,0)" xlink:href="#at"/><use transform="matrix(0.05185185185185186,0,0,0.05185185185185186,81.87407407407409,0)" xlink:href="#aJ"/><use transform="matrix(0.05185185185185186,0,0,0.05185185185185186,85.97037037037039,0)" xlink:href="#av"/><use transform="matrix(0.05185185185185186,0,0,0.05185185185185186,91.15555555555558,0)" xlink:href="#aq"/><use transform="matrix(0.05185185185185186,0,0,0.05185185185185186,101.52592592592595,0)" xlink:href="#az"/><use transform="matrix(0.05185185185185186,0,0,0.05185185185185186,110.85925925925928,0)" xlink:href="#ay"/><use transform="matrix(0.05185185185185186,0,0,0.05185185185185186,121.22962962962964,0)" xlink:href="#aL"/><use transform="matrix(0.05185185185185186,0,0,0.05185185185185186,125.32592592592594,0)" xlink:href="#aJ"/><use transform="matrix(0.05185185185185186,0,0,0.05185185185185186,129.42222222222225,0)" xlink:href="#aK"/><use transform="matrix(0.05185185185185186,0,0,0.05185185185185186,139.79259259259263,0)" xlink:href="#ay"/><use transform="matrix(0.05185185185185186,0,0,0.05185185185185186,150.162962962963,0)" xlink:href="#av"/><use transform="matrix(0.05185185185185186,0,0,0.05185185185185186,155.3481481481482,0)" xlink:href="#aJ"/><use transform="matrix(0.05185185185185186,0,0,0.05185185185185186,159.44444444444449,0)" xlink:href="#as"/><use transform="matrix(0.05185185185185186,0,0,0.05185185185185186,169.81481481481487,0)" xlink:href="#at"/></g><g id="w"><use transform="matrix(0.05185185185185186,0,0,0.05185185185185186,0,0)" xlink:href="#aU"/><use transform="matrix(0.05185185185185186,0,0,0.05185185185185186,13.42962962962963,0)" xlink:href="#aA"/><use transform="matrix(0.05185185185185186,0,0,0.05185185185185186,23.800000000000004,0)" xlink:href="#aJ"/><use transform="matrix(0.05185185185185186,0,0,0.05185185185185186,27.8962962962963,0)" xlink:href="#aC"/><use transform="matrix(0.05185185185185186,0,0,0.05185185185185186,38.26666666666667,0)" xlink:href="#aV"/><use transform="matrix(0.05185185185185186,0,0,0.05185185185185186,48.63703703703705,0)" xlink:href="#av"/><use transform="matrix(0.05185185185185186,0,0,0.05185185185185186,53.82222222222223,0)" xlink:href="#aq"/><use transform="matrix(0.05185185185185186,0,0,0.05185185185185186,64.1925925925926,0)" xlink:href="#ax"/><use transform="matrix(0.05185185185185186,0,0,0.05185185185185186,74.56296296296297,0)" xlink:href="#at"/><use transform="matrix(0.05185185185185186,0,0,0.05185185185185186,84.93333333333334,0)" xlink:href="#aJ"/><use transform="matrix(0.05185185185185186,0,0,0.05185185185185186,89.02962962962964,0)" xlink:href="#av"/><use transform="matrix(0.05185185185185186,0,0,0.05185185185185186,94.21481481481483,0)" xlink:href="#aq"/><use transform="matrix(0.05185185185185186,0,0,0.05185185185185186,104.5851851851852,0)" xlink:href="#az"/><use transform="matrix(0.05185185185185186,0,0,0.05185185185185186,113.91851851851852,0)" xlink:href="#ay"/><use transform="matrix(0.05185185185185186,0,0,0.05185185185185186,124.2888888888889,0)" xlink:href="#aL"/><use transform="matrix(0.05185185185185186,0,0,0.05185185185185186,128.38518518518518,0)" xlink:href="#aJ"/><use transform="matrix(0.05185185185185186,0,0,0.05185185185185186,132.48148148148147,0)" xlink:href="#aK"/><use transform="matrix(0.05185185185185186,0,0,0.05185185185185186,142.85185185185185,0)" xlink:href="#ay"/><use transform="matrix(0.05185185185185186,0,0,0.05185185185185186,153.22222222222223,0)" xlink:href="#av"/><use transform="matrix(0.05185185185185186,0,0,0.05185185185185186,158.40740740740742,0)" xlink:href="#aJ"/><use transform="matrix(0.05185185185185186,0,0,0.05185185185185186,162.5037037037037,0)" xlink:href="#as"/><use transform="matrix(0.05185185185185186,0,0,0.05185185185185186,172.8740740740741,0)" xlink:href="#at"/></g><path d="M30-248c118-7 216 8 213 122C240-48 200 0 122 0H30v-248zM63-27c89 8 146-16 146-99s-60-101-146-95v194" id="aW"/><path d="M63-220v92h138v28H63V0H30v-248h175v28H63" id="aX"/><g id="x"><use transform="matrix(0.05185185185185186,0,0,0.05185185185185186,0,0)" xlink:href="#aC"/><use transform="matrix(0.05185185185185186,0,0,0.05185185185185186,10.370370370370372,0)" xlink:href="#aA"/><use transform="matrix(0.05185185185185186,0,0,0.05185185185185186,20.740740740740744,0)" xlink:href="#at"/><use transform="matrix(0.05185185185185186,0,0,0.05185185185185186,31.111111111111114,0)" xlink:href="#aA"/><use transform="matrix(0.05185185185185186,0,0,0.05185185185185186,41.48148148148149,0)" xlink:href="#aw"/><use transform="matrix(0.05185185185185186,0,0,0.05185185185185186,47.65185185185186,0)" xlink:href="#ay"/><use transform="matrix(0.05185185185185186,0,0,0.05185185185185186,58.022222222222226,0)" xlink:href="#av"/><use transform="matrix(0.05185185185185186,0,0,0.05185185185185186,63.207407407407416,0)" xlink:href="#aA"/><use transform="matrix(0.05185185185185186,0,0,0.05185185185185186,73.57777777777778,0)" xlink:href="#aB"/><use transform="matrix(0.05185185185185186,0,0,0.05185185185185186,86.02222222222223,0)" xlink:href="#aW"/><use transform="matrix(0.05185185185185186,0,0,0.05185185185185186,99.45185185185186,0)" xlink:href="#aX"/></g><path d="M153-248C145-148 188 4 80 4 36 3 13-21 6-62l32-5c4 25 16 42 43 43 27 0 39-20 39-49v-147H72v-28h81" id="aY"/><path d="M185-189c-5-48-123-54-124 2 14 75 158 14 163 119 3 78-121 87-175 55-17-10-28-26-33-46l33-7c5 56 141 63 141-1 0-78-155-14-162-118-5-82 145-84 179-34 5 7 8 16 11 25" id="aZ"/><path d="M140-251c81 0 123 46 123 126C263-46 219 4 140 4 59 4 17-45 17-125s42-126 123-126zm0 227c63 0 89-41 89-101s-29-99-89-99c-61 0-89 39-89 99S79-25 140-24" id="ba"/><path d="M190 0L58-211 59 0H30v-248h39L202-35l-2-213h31V0h-41" id="bb"/><g id="y"><use transform="matrix(0.05185185185185186,0,0,0.05185185185185186,0,0)" xlink:href="#aC"/><use transform="matrix(0.05185185185185186,0,0,0.05185185185185186,10.370370370370372,0)" xlink:href="#aA"/><use transform="matrix(0.05185185185185186,0,0,0.05185185185185186,20.740740740740744,0)" xlink:href="#at"/><use transform="matrix(0.05185185185185186,0,0,0.05185185185185186,31.111111111111114,0)" xlink:href="#aA"/><use transform="matrix(0.05185185185185186,0,0,0.05185185185185186,41.48148148148149,0)" xlink:href="#aw"/><use transform="matrix(0.05185185185185186,0,0,0.05185185185185186,47.65185185185186,0)" xlink:href="#ay"/><use transform="matrix(0.05185185185185186,0,0,0.05185185185185186,58.022222222222226,0)" xlink:href="#av"/><use transform="matrix(0.05185185185185186,0,0,0.05185185185185186,63.207407407407416,0)" xlink:href="#aA"/><use transform="matrix(0.05185185185185186,0,0,0.05185185185185186,73.57777777777778,0)" xlink:href="#aY"/><use transform="matrix(0.05185185185185186,0,0,0.05185185185185186,82.91111111111111,0)" xlink:href="#aZ"/><use transform="matrix(0.05185185185185186,0,0,0.05185185185185186,95.35555555555555,0)" xlink:href="#ba"/><use transform="matrix(0.05185185185185186,0,0,0.05185185185185186,109.87407407407406,0)" xlink:href="#bb"/></g><path d="M115-194c53 0 69 39 70 98 0 66-23 100-70 100C84 3 66-7 56-30L54 0H23l1-261h32v101c10-23 28-34 59-34zm-8 174c40 0 45-34 45-75 0-40-5-75-45-74-42 0-51 32-51 76 0 43 10 73 51 73" id="bc"/><g id="z"><use transform="matrix(0.05185185185185186,0,0,0.05185185185185186,0,0)" xlink:href="#aL"/><use transform="matrix(0.05185185185185186,0,0,0.05185185185185186,4.0962962962962965,0)" xlink:href="#aA"/><use transform="matrix(0.05185185185185186,0,0,0.05185185185185186,14.466666666666669,0)" xlink:href="#ay"/><use transform="matrix(0.05185185185185186,0,0,0.05185185185185186,24.837037037037042,0)" xlink:href="#aK"/><use transform="matrix(0.05185185185185186,0,0,0.05185185185185186,35.207407407407416,0)" xlink:href="#aA"/><use transform="matrix(0.05185185185185186,0,0,0.05185185185185186,45.57777777777779,0)" xlink:href="#aw"/><use transform="matrix(0.05185185185185186,0,0,0.05185185185185186,51.74814814814816,0)" xlink:href="#bc"/><use transform="matrix(0.05185185185185186,0,0,0.05185185185185186,62.118518518518535,0)" xlink:href="#as"/><use transform="matrix(0.05185185185185186,0,0,0.05185185185185186,72.48888888888891,0)" xlink:href="#ay"/><use transform="matrix(0.05185185185185186,0,0,0.05185185185185186,82.85925925925928,0)" xlink:href="#aw"/><use transform="matrix(0.05185185185185186,0,0,0.05185185185185186,89.02962962962965,0)" xlink:href="#aK"/></g><path d="M160-131c35 5 61 23 61 61C221 17 115-2 30 0v-248c76 3 177-17 177 60 0 33-19 50-47 57zm-97-11c50-1 110 9 110-42 0-47-63-36-110-37v79zm0 115c55-2 124 14 124-45 0-56-70-42-124-44v89" id="bd"/><path d="M179-190L93 31C79 59 56 82 12 73V49c39 6 53-20 64-50L1-190h34L92-34l54-156h33" id="be"/><path d="M240 0l2-218c-23 76-54 145-80 218h-23L58-218 59 0H30v-248h44l77 211c21-75 51-140 76-211h43V0h-30" id="bf"/><g id="A"><use transform="matrix(0.05185185185185186,0,0,0.05185185185185186,0,0)" xlink:href="#aC"/><use transform="matrix(0.05185185185185186,0,0,0.05185185185185186,10.370370370370372,0)" xlink:href="#aA"/><use transform="matrix(0.05185185185185186,0,0,0.05185185185185186,20.740740740740744,0)" xlink:href="#av"/><use transform="matrix(0.05185185185185186,0,0,0.05185185185185186,25.92592592592593,0)" xlink:href="#aZ"/><use transform="matrix(0.05185185185185186,0,0,0.05185185185185186,38.37037037037038,0)" xlink:href="#ar"/><use transform="matrix(0.05185185185185186,0,0,0.05185185185185186,47.70370370370372,0)" xlink:href="#as"/><use transform="matrix(0.05185185185185186,0,0,0.05185185185185186,58.07407407407409,0)" xlink:href="#aw"/><use transform="matrix(0.05185185185185186,0,0,0.05185185185185186,64.24444444444447,0)" xlink:href="#aA"/><use transform="matrix(0.05185185185185186,0,0,0.05185185185185186,74.61481481481484,0)" xlink:href="#bd"/><use transform="matrix(0.05185185185185186,0,0,0.05185185185185186,87.05925925925928,0)" xlink:href="#be"/><use transform="matrix(0.05185185185185186,0,0,0.05185185185185186,96.3925925925926,0)" xlink:href="#bf"/><use transform="matrix(0.05185185185185186,0,0,0.05185185185185186,111.89629629629631,0)" xlink:href="#as"/><use transform="matrix(0.05185185185185186,0,0,0.05185185185185186,122.26666666666668,0)" xlink:href="#at"/><use transform="matrix(0.05185185185185186,0,0,0.05185185185185186,132.63703703703706,0)" xlink:href="#av"/><use transform="matrix(0.05185185185185186,0,0,0.05185185185185186,137.82222222222225,0)" xlink:href="#aV"/></g><g id="B"><use transform="matrix(0.05185185185185186,0,0,0.05185185185185186,0,0)" xlink:href="#aC"/><use transform="matrix(0.05185185185185186,0,0,0.05185185185185186,10.370370370370372,0)" xlink:href="#aA"/><use transform="matrix(0.05185185185185186,0,0,0.05185185185185186,20.740740740740744,0)" xlink:href="#av"/><use transform="matrix(0.05185185185185186,0,0,0.05185185185185186,25.92592592592593,0)" xlink:href="#aN"/><use transform="matrix(0.05185185185185186,0,0,0.05185185185185186,31.11111111111112,0)" xlink:href="#at"/><use transform="matrix(0.05185185185185186,0,0,0.05185185185185186,41.48148148148149,0)" xlink:href="#av"/><use transform="matrix(0.05185185185185186,0,0,0.05185185185185186,46.66666666666667,0)" xlink:href="#aA"/><use transform="matrix(0.05185185185185186,0,0,0.05185185185185186,57.037037037037045,0)" xlink:href="#at"/><use transform="matrix(0.05185185185185186,0,0,0.05185185185185186,67.40740740740742,0)" xlink:href="#aK"/><use transform="matrix(0.05185185185185186,0,0,0.05185185185185186,77.77777777777779,0)" xlink:href="#aA"/><use transform="matrix(0.05185185185185186,0,0,0.05185185185185186,88.14814814814815,0)" xlink:href="#aK"/><use transform="matrix(0.05185185185185186,0,0,0.05185185185185186,98.51851851851852,0)" xlink:href="#aB"/><use transform="matrix(0.05185185185185186,0,0,0.05185185185185186,110.96296296296295,0)" xlink:href="#as"/><use transform="matrix(0.05185185185185186,0,0,0.05185185185185186,121.33333333333333,0)" xlink:href="#aJ"/><use transform="matrix(0.05185185185185186,0,0,0.05185185185185186,125.42962962962962,0)" xlink:href="#at"/><use transform="matrix(0.05185185185185186,0,0,0.05185185185185186,135.8,0)" xlink:href="#av"/><use transform="matrix(0.05185185185185186,0,0,0.05185185185185186,140.9851851851852,0)" xlink:href="#au"/></g><path d="M266 0h-40l-56-210L115 0H75L2-248h35L96-30l15-64 43-154h32l59 218 59-218h35" id="bg"/><path d="M143 0L79-87 56-68V0H24v-261h32v163l83-92h37l-77 82L181 0h-38" id="bh"/><g id="C"><use transform="matrix(0.05185185185185186,0,0,0.05185185185185186,0,0)" xlink:href="#aC"/><use transform="matrix(0.05185185185185186,0,0,0.05185185185185186,10.370370370370372,0)" xlink:href="#aA"/><use transform="matrix(0.05185185185185186,0,0,0.05185185185185186,20.740740740740744,0)" xlink:href="#av"/><use transform="matrix(0.05185185185185186,0,0,0.05185185185185186,25.92592592592593,0)" xlink:href="#bb"/><use transform="matrix(0.05185185185185186,0,0,0.05185185185185186,39.35555555555556,0)" xlink:href="#aw"/><use transform="matrix(0.05185185185185186,0,0,0.05185185185185186,45.52592592592593,0)" xlink:href="#bg"/><use transform="matrix(0.05185185185185186,0,0,0.05185185185185186,62.74074074074075,0)" xlink:href="#as"/><use transform="matrix(0.05185185185185186,0,0,0.05185185185185186,73.11111111111111,0)" xlink:href="#aw"/><use transform="matrix(0.05185185185185186,0,0,0.05185185185185186,79.28148148148148,0)" xlink:href="#bh"/><use transform="matrix(0.05185185185185186,0,0,0.05185185185185186,88.6148148148148,0)" xlink:href="#as"/><use transform="matrix(0.05185185185185186,0,0,0.05185185185185186,98.98518518518517,0)" xlink:href="#ax"/><use transform="matrix(0.05185185185185186,0,0,0.05185185185185186,109.35555555555554,0)" xlink:href="#av"/><use transform="matrix(0.05185185185185186,0,0,0.05185185185185186,114.54074074074073,0)" xlink:href="#au"/><use transform="matrix(0.05185185185185186,0,0,0.05185185185185186,123.87407407407406,0)" xlink:href="#bd"/><use transform="matrix(0.05185185185185186,0,0,0.05185185185185186,136.31851851851852,0)" xlink:href="#be"/><use transform="matrix(0.05185185185185186,0,0,0.05185185185185186,145.65185185185186,0)" xlink:href="#aN"/><use transform="matrix(0.05185185185185186,0,0,0.05185185185185186,150.83703703703705,0)" xlink:href="#at"/><use transform="matrix(0.05185185185185186,0,0,0.05185185185185186,161.20740740740743,0)" xlink:href="#av"/><use transform="matrix(0.05185185185185186,0,0,0.05185185185185186,166.39259259259262,0)" xlink:href="#aA"/><use transform="matrix(0.05185185185185186,0,0,0.05185185185185186,176.762962962963,0)" xlink:href="#at"/><use transform="matrix(0.05185185185185186,0,0,0.05185185185185186,187.13333333333338,0)" xlink:href="#au"/><use transform="matrix(0.05185185185185186,0,0,0.05185185185185186,196.46666666666673,0)" xlink:href="#aJ"/><use transform="matrix(0.05185185185185186,0,0,0.05185185185185186,200.562962962963,0)" xlink:href="#av"/><use transform="matrix(0.05185185185185186,0,0,0.05185185185185186,205.7481481481482,0)" xlink:href="#be"/></g><g id="D"><use transform="matrix(0.05185185185185186,0,0,0.05185185185185186,0,0)" xlink:href="#aC"/><use transform="matrix(0.05185185185185186,0,0,0.05185185185185186,10.370370370370372,0)" xlink:href="#aA"/><use transform="matrix(0.05185185185185186,0,0,0.05185185185185186,20.740740740740744,0)" xlink:href="#av"/><use transform="matrix(0.05185185185185186,0,0,0.05185185185185186,25.92592592592593,0)" xlink:href="#bb"/><use transform="matrix(0.05185185185185186,0,0,0.05185185185185186,39.35555555555556,0)" xlink:href="#aw"/><use transform="matrix(0.05185185185185186,0,0,0.05185185185185186,45.52592592592593,0)" xlink:href="#bg"/><use transform="matrix(0.05185185185185186,0,0,0.05185185185185186,62.74074074074075,0)" xlink:href="#as"/><use transform="matrix(0.05185185185185186,0,0,0.05185185185185186,73.11111111111111,0)" xlink:href="#aw"/><use transform="matrix(0.05185185185185186,0,0,0.05185185185185186,79.28148148148148,0)" xlink:href="#bh"/><use transform="matrix(0.05185185185185186,0,0,0.05185185185185186,88.6148148148148,0)" xlink:href="#as"/><use transform="matrix(0.05185185185185186,0,0,0.05185185185185186,98.98518518518517,0)" xlink:href="#ax"/><use transform="matrix(0.05185185185185186,0,0,0.05185185185185186,109.35555555555554,0)" xlink:href="#av"/><use transform="matrix(0.05185185185185186,0,0,0.05185185185185186,114.54074074074073,0)" xlink:href="#au"/><use transform="matrix(0.05185185185185186,0,0,0.05185185185185186,123.87407407407406,0)" xlink:href="#aB"/><use transform="matrix(0.05185185185185186,0,0,0.05185185185185186,136.31851851851852,0)" xlink:href="#aA"/><use transform="matrix(0.05185185185185186,0,0,0.05185185185185186,146.6888888888889,0)" xlink:href="#aw"/><use transform="matrix(0.05185185185185186,0,0,0.05185185185185186,152.85925925925926,0)" xlink:href="#bg"/><use transform="matrix(0.05185185185185186,0,0,0.05185185185185186,170.07407407407408,0)" xlink:href="#aA"/><use transform="matrix(0.05185185185185186,0,0,0.05185185185185186,180.44444444444446,0)" xlink:href="#aA"/><use transform="matrix(0.05185185185185186,0,0,0.05185185185185186,190.81481481481484,0)" xlink:href="#bh"/><use transform="matrix(0.05185185185185186,0,0,0.05185185185185186,200.14814814814818,0)" xlink:href="#aW"/><use transform="matrix(0.05185185185185186,0,0,0.05185185185185186,213.5777777777778,0)" xlink:href="#ay"/><use transform="matrix(0.05185185185185186,0,0,0.05185185185185186,223.94814814814816,0)" xlink:href="#be"/></g><g id="E"><use transform="matrix(0.05185185185185186,0,0,0.05185185185185186,0,0)" xlink:href="#aC"/><use transform="matrix(0.05185185185185186,0,0,0.05185185185185186,10.370370370370372,0)" xlink:href="#aA"/><use transform="matrix(0.05185185185185186,0,0,0.05185185185185186,20.740740740740744,0)" xlink:href="#av"/><use transform="matrix(0.05185185185185186,0,0,0.05185185185185186,25.92592592592593,0)" xlink:href="#aX"/><use transform="matrix(0.05185185185185186,0,0,0.05185185185185186,37.281481481481485,0)" xlink:href="#as"/><use transform="matrix(0.05185185185185186,0,0,0.05185185185185186,47.65185185185186,0)" xlink:href="#ar"/><use transform="matrix(0.05185185185185186,0,0,0.05185185185185186,56.985185185185195,0)" xlink:href="#ax"/><use transform="matrix(0.05185185185185186,0,0,0.05185185185185186,67.35555555555557,0)" xlink:href="#au"/><use transform="matrix(0.05185185185185186,0,0,0.05185185185185186,76.6888888888889,0)" xlink:href="#aB"/><use transform="matrix(0.05185185185185186,0,0,0.05185185185185186,89.13333333333334,0)" xlink:href="#as"/><use transform="matrix(0.05185185185185186,0,0,0.05185185185185186,99.5037037037037,0)" xlink:href="#aJ"/><use transform="matrix(0.05185185185185186,0,0,0.05185185185185186,103.60000000000001,0)" xlink:href="#at"/><use transform="matrix(0.05185185185185186,0,0,0.05185185185185186,113.97037037037039,0)" xlink:href="#av"/><use transform="matrix(0.05185185185185186,0,0,0.05185185185185186,119.15555555555557,0)" xlink:href="#au"/></g><g id="F"><use transform="matrix(0.05185185185185186,0,0,0.05185185185185186,0,0)" xlink:href="#au"/><use transform="matrix(0.05185185185185186,0,0,0.05185185185185186,9.333333333333334,0)" xlink:href="#av"/><use transform="matrix(0.05185185185185186,0,0,0.05185185185185186,14.51851851851852,0)" xlink:href="#ay"/><use transform="matrix(0.05185185185185186,0,0,0.05185185185185186,24.888888888888893,0)" xlink:href="#av"/><use transform="matrix(0.05185185185185186,0,0,0.05185185185185186,30.074074074074076,0)" xlink:href="#aJ"/><use transform="matrix(0.05185185185185186,0,0,0.05185185185185186,34.17037037037038,0)" xlink:href="#au"/><use transform="matrix(0.05185185185185186,0,0,0.05185185185185186,43.503703703703714,0)" xlink:href="#av"/><use transform="matrix(0.05185185185185186,0,0,0.05185185185185186,48.6888888888889,0)" xlink:href="#aJ"/><use transform="matrix(0.05185185185185186,0,0,0.05185185185185186,52.78518518518519,0)" xlink:href="#ar"/><use transform="matrix(0.05185185185185186,0,0,0.05185185185185186,62.11851851851853,0)" xlink:href="#au"/></g><g id="G"><use transform="matrix(0.05185185185185186,0,0,0.05185185185185186,0,0)" xlink:href="#aL"/><use transform="matrix(0.05185185185185186,0,0,0.05185185185185186,4.0962962962962965,0)" xlink:href="#aA"/><use transform="matrix(0.05185185185185186,0,0,0.05185185185185186,14.466666666666669,0)" xlink:href="#ay"/><use transform="matrix(0.05185185185185186,0,0,0.05185185185185186,24.837037037037042,0)" xlink:href="#aK"/><use transform="matrix(0.05185185185185186,0,0,0.05185185185185186,35.207407407407416,0)" xlink:href="#aA"/><use transform="matrix(0.05185185185185186,0,0,0.05185185185185186,45.57777777777779,0)" xlink:href="#aw"/><use transform="matrix(0.05185185185185186,0,0,0.05185185185185186,51.74814814814816,0)" xlink:href="#bc"/><use transform="matrix(0.05185185185185186,0,0,0.05185185185185186,62.118518518518535,0)" xlink:href="#as"/><use transform="matrix(0.05185185185185186,0,0,0.05185185185185186,72.48888888888891,0)" xlink:href="#ay"/><use transform="matrix(0.05185185185185186,0,0,0.05185185185185186,82.85925925925928,0)" xlink:href="#aw"/><use transform="matrix(0.05185185185185186,0,0,0.05185185185185186,89.02962962962965,0)" xlink:href="#aK"/><use transform="matrix(0.05185185185185186,0,0,0.05185185185185186,99.40000000000002,0)" xlink:href="#aO"/><use transform="matrix(0.05185185185185186,0,0,0.05185185185185186,112.82962962962964,0)" xlink:href="#aZ"/><use transform="matrix(0.05185185185185186,0,0,0.05185185185185186,125.2740740740741,0)" xlink:href="#aZ"/></g><g id="H"><use transform="matrix(0.05185185185185186,0,0,0.05185185185185186,0,0)" xlink:href="#aU"/><use transform="matrix(0.05185185185185186,0,0,0.05185185185185186,13.42962962962963,0)" xlink:href="#as"/><use transform="matrix(0.05185185185185186,0,0,0.05185185185185186,23.800000000000004,0)" xlink:href="#aw"/><use transform="matrix(0.05185185185185186,0,0,0.05185185185185186,29.970370370370375,0)" xlink:href="#bh"/><use transform="matrix(0.05185185185185186,0,0,0.05185185185185186,39.30370370370371,0)" xlink:href="#as"/><use transform="matrix(0.05185185185185186,0,0,0.05185185185185186,49.674074074074085,0)" xlink:href="#ax"/><use transform="matrix(0.05185185185185186,0,0,0.05185185185185186,60.044444444444466,0)" xlink:href="#av"/></g><path d="M232-93c-1 65-40 97-104 97C67 4 28-28 28-90v-158h33c8 89-33 224 67 224 102 0 64-133 71-224h33v155" id="bi"/><g id="I"><use transform="matrix(0.05185185185185186,0,0,0.05185185185185186,0,0)" xlink:href="#ay"/><use transform="matrix(0.05185185185185186,0,0,0.05185185185185186,10.370370370370372,0)" xlink:href="#aK"/><use transform="matrix(0.05185185185185186,0,0,0.05185185185185186,20.740740740740744,0)" xlink:href="#aK"/><use transform="matrix(0.05185185185185186,0,0,0.05185185185185186,31.111111111111114,0)" xlink:href="#bi"/><use transform="matrix(0.05185185185185186,0,0,0.05185185185185186,44.540740740740745,0)" xlink:href="#au"/><use transform="matrix(0.05185185185185186,0,0,0.05185185185185186,53.87407407407408,0)" xlink:href="#aA"/><use transform="matrix(0.05185185185185186,0,0,0.05185185185185186,64.24444444444445,0)" xlink:href="#aw"/><use transform="matrix(0.05185185185185186,0,0,0.05185185185185186,70.41481481481483,0)" xlink:href="#bg"/><use transform="matrix(0.05185185185185186,0,0,0.05185185185185186,87.62962962962965,0)" xlink:href="#as"/><use transform="matrix(0.05185185185185186,0,0,0.05185185185185186,98.00000000000001,0)" xlink:href="#aw"/><use transform="matrix(0.05185185185185186,0,0,0.05185185185185186,104.17037037037039,0)" xlink:href="#bh"/><use transform="matrix(0.05185185185185186,0,0,0.05185185185185186,113.50370370370372,0)" xlink:href="#as"/><use transform="matrix(0.05185185185185186,0,0,0.05185185185185186,123.87407407407409,0)" xlink:href="#ax"/><use transform="matrix(0.05185185185185186,0,0,0.05185185185185186,134.24444444444447,0)" xlink:href="#av"/></g><g id="J"><use transform="matrix(0.05185185185185186,0,0,0.05185185185185186,0,0)" xlink:href="#aU"/><use transform="matrix(0.05185185185185186,0,0,0.05185185185185186,13.42962962962963,0)" xlink:href="#as"/><use transform="matrix(0.05185185185185186,0,0,0.05185185185185186,23.800000000000004,0)" xlink:href="#aw"/><use transform="matrix(0.05185185185185186,0,0,0.05185185185185186,29.970370370370375,0)" xlink:href="#bh"/><use transform="matrix(0.05185185185185186,0,0,0.05185185185185186,39.30370370370371,0)" xlink:href="#as"/><use transform="matrix(0.05185185185185186,0,0,0.05185185185185186,49.674074074074085,0)" xlink:href="#ax"/><use transform="matrix(0.05185185185185186,0,0,0.05185185185185186,60.044444444444466,0)" xlink:href="#av"/><use transform="matrix(0.05185185185185186,0,0,0.05185185185185186,65.22962962962964,0)" xlink:href="#aW"/><use transform="matrix(0.05185185185185186,0,0,0.05185185185185186,78.65925925925927,0)" xlink:href="#as"/><use transform="matrix(0.05185185185185186,0,0,0.05185185185185186,89.02962962962964,0)" xlink:href="#at"/><use transform="matrix(0.05185185185185186,0,0,0.05185185185185186,99.4,0)" xlink:href="#aA"/></g><g id="K"><use transform="matrix(0.05185185185185186,0,0,0.05185185185185186,0,0)" xlink:href="#aA"/><use transform="matrix(0.05185185185185186,0,0,0.05185185185185186,10.370370370370372,0)" xlink:href="#aM"/><use transform="matrix(0.05185185185185186,0,0,0.05185185185185186,19.703703703703706,0)" xlink:href="#aA"/><use transform="matrix(0.05185185185185186,0,0,0.05185185185185186,30.074074074074076,0)" xlink:href="#aw"/><use transform="matrix(0.05185185185185186,0,0,0.05185185185185186,36.24444444444445,0)" xlink:href="#ar"/><use transform="matrix(0.05185185185185186,0,0,0.05185185185185186,45.57777777777778,0)" xlink:href="#aJ"/><use transform="matrix(0.05185185185185186,0,0,0.05185185185185186,49.67407407407408,0)" xlink:href="#au"/><use transform="matrix(0.05185185185185186,0,0,0.05185185185185186,59.00740740740741,0)" xlink:href="#aA"/><use transform="matrix(0.05185185185185186,0,0,0.05185185185185186,69.37777777777778,0)" xlink:href="#aW"/><use transform="matrix(0.05185185185185186,0,0,0.05185185185185186,82.80740740740741,0)" xlink:href="#aA"/><use transform="matrix(0.05185185185185186,0,0,0.05185185185185186,93.17777777777778,0)" xlink:href="#av"/><use transform="matrix(0.05185185185185186,0,0,0.05185185185185186,98.36296296296297,0)" xlink:href="#ay"/><use transform="matrix(0.05185185185185186,0,0,0.05185185185185186,108.73333333333335,0)" xlink:href="#aJ"/><use transform="matrix(0.05185185185185186,0,0,0.05185185185185186,112.82962962962964,0)" xlink:href="#aL"/><use transform="matrix(0.05185185185185186,0,0,0.05185185185185186,116.92592592592594,0)" xlink:href="#au"/></g><g id="L"><use transform="matrix(0.05185185185185186,0,0,0.05185185185185186,0,0)" xlink:href="#aw"/><use transform="matrix(0.05185185185185186,0,0,0.05185185185185186,6.170370370370371,0)" xlink:href="#aA"/><use transform="matrix(0.05185185185185186,0,0,0.05185185185185186,16.540740740740745,0)" xlink:href="#aC"/><use transform="matrix(0.05185185185185186,0,0,0.05185185185185186,26.91111111111112,0)" xlink:href="#aJ"/><use transform="matrix(0.05185185185185186,0,0,0.05185185185185186,31.00740740740741,0)" xlink:href="#au"/><use transform="matrix(0.05185185185185186,0,0,0.05185185185185186,40.34074074074075,0)" xlink:href="#av"/><use transform="matrix(0.05185185185185186,0,0,0.05185185185185186,45.52592592592593,0)" xlink:href="#aA"/><use transform="matrix(0.05185185185185186,0,0,0.05185185185185186,55.8962962962963,0)" xlink:href="#aw"/></g><g id="M"><use transform="matrix(0.05185185185185186,0,0,0.05185185185185186,0,0)" xlink:href="#ar"/><use transform="matrix(0.05185185185185186,0,0,0.05185185185185186,9.333333333333334,0)" xlink:href="#aw"/><use transform="matrix(0.05185185185185186,0,0,0.05185185185185186,15.503703703703705,0)" xlink:href="#aA"/><use transform="matrix(0.05185185185185186,0,0,0.05185185185185186,25.874074074074077,0)" xlink:href="#ay"/><use transform="matrix(0.05185185185185186,0,0,0.05185185185185186,36.24444444444445,0)" xlink:href="#av"/><use transform="matrix(0.05185185185185186,0,0,0.05185185185185186,41.42962962962963,0)" xlink:href="#aA"/><use transform="matrix(0.05185185185185186,0,0,0.05185185185185186,51.800000000000004,0)" xlink:href="#bi"/><use transform="matrix(0.05185185185185186,0,0,0.05185185185185186,65.22962962962964,0)" xlink:href="#au"/><use transform="matrix(0.05185185185185186,0,0,0.05185185185185186,74.56296296296297,0)" xlink:href="#aA"/><use transform="matrix(0.05185185185185186,0,0,0.05185185185185186,84.93333333333334,0)" xlink:href="#aw"/><use transform="matrix(0.05185185185185186,0,0,0.05185185185185186,91.1037037037037,0)" xlink:href="#aZ"/><use transform="matrix(0.05185185185185186,0,0,0.05185185185185186,103.54814814814814,0)" xlink:href="#aA"/><use transform="matrix(0.05185185185185186,0,0,0.05185185185185186,113.91851851851851,0)" xlink:href="#au"/><use transform="matrix(0.05185185185185186,0,0,0.05185185185185186,123.25185185185184,0)" xlink:href="#au"/><use transform="matrix(0.05185185185185186,0,0,0.05185185185185186,132.58518518518517,0)" xlink:href="#aJ"/><use transform="matrix(0.05185185185185186,0,0,0.05185185185185186,136.68148148148146,0)" xlink:href="#as"/><use transform="matrix(0.05185185185185186,0,0,0.05185185185185186,147.05185185185184,0)" xlink:href="#at"/></g><g id="N"><use transform="matrix(0.05185185185185186,0,0,0.05185185185185186,0,0)" xlink:href="#aI"/><use transform="matrix(0.05185185185185186,0,0,0.05185185185185186,10.370370370370372,0)" xlink:href="#aw"/><use transform="matrix(0.05185185185185186,0,0,0.05185185185185186,16.540740740740745,0)" xlink:href="#as"/><use transform="matrix(0.05185185185185186,0,0,0.05185185185185186,26.91111111111112,0)" xlink:href="#aT"/><use transform="matrix(0.05185185185185186,0,0,0.05185185185185186,32.0962962962963,0)" xlink:href="#aJ"/><use transform="matrix(0.05185185185185186,0,0,0.05185185185185186,36.1925925925926,0)" xlink:href="#aL"/><use transform="matrix(0.05185185185185186,0,0,0.05185185185185186,40.28888888888889,0)" xlink:href="#aA"/></g><g id="O"><use transform="matrix(0.05185185185185186,0,0,0.05185185185185186,0,0)" xlink:href="#aL"/><use transform="matrix(0.05185185185185186,0,0,0.05185185185185186,4.0962962962962965,0)" xlink:href="#as"/><use transform="matrix(0.05185185185185186,0,0,0.05185185185185186,14.466666666666669,0)" xlink:href="#aC"/><use transform="matrix(0.05185185185185186,0,0,0.05185185185185186,24.837037037037042,0)" xlink:href="#as"/><use transform="matrix(0.05185185185185186,0,0,0.05185185185185186,35.207407407407416,0)" xlink:href="#ax"/><use transform="matrix(0.05185185185185186,0,0,0.05185185185185186,45.57777777777779,0)" xlink:href="#av"/></g><path d="M197 0v-115H63V0H30v-248h33v105h134v-105h34V0h-34" id="bj"/><g id="P"><use transform="matrix(0.05185185185185186,0,0,0.05185185185185186,0,0)" xlink:href="#au"/><use transform="matrix(0.05185185185185186,0,0,0.05185185185185186,9.333333333333334,0)" xlink:href="#av"/><use transform="matrix(0.05185185185185186,0,0,0.05185185185185186,14.51851851851852,0)" xlink:href="#aK"/><use transform="matrix(0.05185185185185186,0,0,0.05185185185185186,24.888888888888893,0)" xlink:href="#bj"/><use transform="matrix(0.05185185185185186,0,0,0.05185185185185186,38.31851851851852,0)" xlink:href="#aA"/><use transform="matrix(0.05185185185185186,0,0,0.05185185185185186,48.6888888888889,0)" xlink:href="#aJ"/><use transform="matrix(0.05185185185185186,0,0,0.05185185185185186,52.78518518518519,0)" xlink:href="#aC"/><use transform="matrix(0.05185185185185186,0,0,0.05185185185185186,63.155555555555566,0)" xlink:href="#aV"/><use transform="matrix(0.05185185185185186,0,0,0.05185185185185186,73.52592592592593,0)" xlink:href="#av"/></g><g id="Q"><use transform="matrix(0.05185185185185186,0,0,0.05185185185185186,0,0)" xlink:href="#au"/><use transform="matrix(0.05185185185185186,0,0,0.05185185185185186,9.333333333333334,0)" xlink:href="#av"/><use transform="matrix(0.05185185185185186,0,0,0.05185185185185186,14.51851851851852,0)" xlink:href="#aK"/><use transform="matrix(0.05185185185185186,0,0,0.05185185185185186,24.888888888888893,0)" xlink:href="#bg"/><use transform="matrix(0.05185185185185186,0,0,0.05185185185185186,42.10370370370371,0)" xlink:href="#aA"/><use transform="matrix(0.05185185185185186,0,0,0.05185185185185186,52.47407407407408,0)" xlink:href="#aJ"/><use transform="matrix(0.05185185185185186,0,0,0.05185185185185186,56.57037037037038,0)" xlink:href="#aC"/><use transform="matrix(0.05185185185185186,0,0,0.05185185185185186,66.94074074074075,0)" xlink:href="#aV"/><use transform="matrix(0.05185185185185186,0,0,0.05185185185185186,77.31111111111112,0)" xlink:href="#av"/></g><path fill="#333" d="M130 0H70L30-248h54l24 206c31-72 69-137 103-206h54" id="bk"/><path fill="#333" d="M50-224l7-37h49l-7 37H50zM6 0l37-190h49L55 0H6" id="bl"/><path fill="#333" d="M114-194c63-2 87 48 72 110H63c-3 28 1 55 31 54 21-1 32-13 37-29l44 13C160-14 137 4 91 4 41 4 11-22 11-73c0-71 33-119 103-121zm30 77c14-47-50-61-67-22-3 6-6 13-8 22h75" id="bm"/><path fill="#333" d="M212 0h-52l-8-156L82 0H30L17-190h46l2 145 66-145h53l8 145 60-145h47" id="bn"/><g id="R"><use transform="matrix(0.05,0,0,0.05,0,0)" xlink:href="#bk"/><use transform="matrix(0.05,0,0,0.05,11.35,0)" xlink:href="#bl"/><use transform="matrix(0.05,0,0,0.05,16.35,0)" xlink:href="#bm"/><use transform="matrix(0.05,0,0,0.05,26.35,0)" xlink:href="#bn"/></g><path fill="#333" d="M106-169C34-169 62-67 57 0H25v-261h32l-1 103c12-21 28-36 61-36 89 0 53 116 60 194h-32v-121c2-32-8-49-39-48" id="bo"/><path fill="#333" d="M100-194c62-1 85 37 85 99 1 63-27 99-86 99S16-35 15-95c0-66 28-99 85-99zM99-20c44 1 53-31 53-75 0-43-8-75-51-75s-53 32-53 75 10 74 51 75" id="bp"/><path fill="#333" d="M210-169c-67 3-38 105-44 169h-31v-121c0-29-5-50-35-48C34-165 62-65 56 0H25l-1-190h30c1 10-1 24 2 32 10-44 99-50 107 0 11-21 27-35 58-36 85-2 47 119 55 194h-31v-121c0-29-5-49-35-48" id="bq"/><path fill="#333" d="M100-194c63 0 86 42 84 106H49c0 40 14 67 53 68 26 1 43-12 49-29l28 8c-11 28-37 45-77 45C44 4 14-33 15-96c1-61 26-98 85-98zm52 81c6-60-76-77-97-28-3 7-6 17-6 28h103" id="br"/><g id="S"><use transform="matrix(0.05,0,0,0.05,0,0)" xlink:href="#bo"/><use transform="matrix(0.05,0,0,0.05,10,0)" xlink:href="#bp"/><use transform="matrix(0.05,0,0,0.05,20,0)" xlink:href="#bq"/><use transform="matrix(0.05,0,0,0.05,34.95,0)" xlink:href="#br"/></g><path fill="#333" d="M114-163C36-179 61-72 57 0H25l-1-190h30c1 12-1 29 2 39 6-27 23-49 58-41v29" id="bs"/><g id="T"><use transform="matrix(0.05,0,0,0.05,0,0)" xlink:href="#br"/><use transform="matrix(0.05,0,0,0.05,10,0)" xlink:href="#bs"/><use transform="matrix(0.05,0,0,0.05,15.949999999999998,0)" xlink:href="#bs"/><use transform="matrix(0.05,0,0,0.05,21.9,0)" xlink:href="#bp"/><use transform="matrix(0.05,0,0,0.05,31.899999999999995,0)" xlink:href="#bs"/></g><path fill="#333" d="M24-231v-30h32v30H24zM24 0v-190h32V0H24" id="bt"/><path fill="#333" d="M117-194c89-4 53 116 60 194h-32v-121c0-31-8-49-39-48C34-167 62-67 57 0H25l-1-190h30c1 10-1 24 2 32 11-22 29-35 61-36" id="bu"/><path fill="#333" d="M85-194c31 0 48 13 60 33l-1-100h32l1 261h-30c-2-10 0-23-3-31C134-8 116 4 85 4 32 4 16-35 15-94c0-66 23-100 70-100zm9 24c-40 0-46 34-46 75 0 40 6 74 45 74 42 0 51-32 51-76 0-42-9-74-50-73" id="bv"/><path fill="#333" d="M141 0L90-78 38 0H4l68-98-65-92h35l48 74 47-74h35l-64 92 68 98h-35" id="bw"/><g id="U"><use transform="matrix(0.05,0,0,0.05,0,0)" xlink:href="#bt"/><use transform="matrix(0.05,0,0,0.05,3.95,0)" xlink:href="#bu"/><use transform="matrix(0.05,0,0,0.05,13.949999999999998,0)" xlink:href="#bv"/><use transform="matrix(0.05,0,0,0.05,23.95,0)" xlink:href="#br"/><use transform="matrix(0.05,0,0,0.05,33.95,0)" xlink:href="#bw"/></g><path fill="#333" d="M24 0v-261h32V0H24" id="bx"/><path fill="#333" d="M177-190C167-65 218 103 67 71c-23-6-38-20-44-43l32-5c15 47 100 32 89-28v-30C133-14 115 1 83 1 29 1 15-40 15-95c0-56 16-97 71-98 29-1 48 16 59 35 1-10 0-23 2-32h30zM94-22c36 0 50-32 50-73 0-42-14-75-50-75-39 0-46 34-46 75s6 73 46 73" id="by"/><path fill="#333" d="M33 0v-248h34V0H33" id="bz"/><g id="V"><use transform="matrix(0.05,0,0,0.05,0,0)" xlink:href="#bx"/><use transform="matrix(0.05,0,0,0.05,3.95,0)" xlink:href="#bp"/><use transform="matrix(0.05,0,0,0.05,13.949999999999998,0)" xlink:href="#by"/><use transform="matrix(0.05,0,0,0.05,23.95,0)" xlink:href="#by"/><use transform="matrix(0.05,0,0,0.05,33.95,0)" xlink:href="#br"/><use transform="matrix(0.05,0,0,0.05,43.95,0)" xlink:href="#bv"/><use transform="matrix(0.05,0,0,0.05,53.95,0)" xlink:href="#bz"/><use transform="matrix(0.05,0,0,0.05,58.95,0)" xlink:href="#bu"/><use transform="matrix(0.05,0,0,0.05,68.95,0)" xlink:href="#bz"/><use transform="matrix(0.05,0,0,0.05,73.95,0)" xlink:href="#bu"/><use transform="matrix(0.05,0,0,0.05,83.95,0)" xlink:href="#bv"/><use transform="matrix(0.05,0,0,0.05,93.95,0)" xlink:href="#br"/><use transform="matrix(0.05,0,0,0.05,103.95,0)" xlink:href="#bw"/></g><path fill="#333" d="M96-169c-40 0-48 33-48 73s9 75 48 75c24 0 41-14 43-38l32 2c-6 37-31 61-74 61-59 0-76-41-82-99-10-93 101-131 147-64 4 7 5 14 7 22l-32 3c-4-21-16-35-41-35" id="bA"/><path fill="#333" d="M84 4C-5 8 30-112 23-190h32v120c0 31 7 50 39 49 72-2 45-101 50-169h31l1 190h-30c-1-10 1-25-2-33-11 22-28 36-60 37" id="bB"/><path fill="#333" d="M135-143c-3-34-86-38-87 0 15 53 115 12 119 90S17 21 10-45l28-5c4 36 97 45 98 0-10-56-113-15-118-90-4-57 82-63 122-42 12 7 21 19 24 35" id="bC"/><g id="W"><use transform="matrix(0.05,0,0,0.05,0,0)" xlink:href="#bt"/><use transform="matrix(0.05,0,0,0.05,3.95,0)" xlink:href="#bu"/><use transform="matrix(0.05,0,0,0.05,13.949999999999998,0)" xlink:href="#bA"/><use transform="matrix(0.05,0,0,0.05,22.95,0)" xlink:href="#bx"/><use transform="matrix(0.05,0,0,0.05,26.899999999999995,0)" xlink:href="#bB"/><use transform="matrix(0.05,0,0,0.05,36.9,0)" xlink:href="#bv"/><use transform="matrix(0.05,0,0,0.05,46.9,0)" xlink:href="#br"/><use transform="matrix(0.05,0,0,0.05,56.900000000000006,0)" xlink:href="#bC"/></g><path fill="#333" d="M141-36C126-15 110 5 73 4 37 3 15-17 15-53c-1-64 63-63 125-63 3-35-9-54-41-54-24 1-41 7-42 31l-33-3c5-37 33-52 76-52 45 0 72 20 72 64v82c-1 20 7 32 28 27v20c-31 9-61-2-59-35zM48-53c0 20 12 33 32 33 41-3 63-29 60-74-43 2-92-5-92 41" id="bD"/><g id="X"><use transform="matrix(0.05,0,0,0.05,0,0)" xlink:href="#bo"/><use transform="matrix(0.05,0,0,0.05,10,0)" xlink:href="#br"/><use transform="matrix(0.05,0,0,0.05,20,0)" xlink:href="#bD"/><use transform="matrix(0.05,0,0,0.05,30,0)" xlink:href="#bv"/><use transform="matrix(0.05,0,0,0.05,40,0)" xlink:href="#br"/><use transform="matrix(0.05,0,0,0.05,50,0)" xlink:href="#bs"/></g><path fill="#333" d="M197 0v-115H63V0H30v-248h33v105h134v-105h34V0h-34" id="bE"/><g id="Y"><use transform="matrix(0.05,0,0,0.05,0,0)" xlink:href="#bx"/><use transform="matrix(0.05,0,0,0.05,3.95,0)" xlink:href="#bp"/><use transform="matrix(0.05,0,0,0.05,13.949999999999998,0)" xlink:href="#by"/><use transform="matrix(0.05,0,0,0.05,23.95,0)" xlink:href="#by"/><use transform="matrix(0.05,0,0,0.05,33.95,0)" xlink:href="#br"/><use transform="matrix(0.05,0,0,0.05,43.95,0)" xlink:href="#bv"/><use transform="matrix(0.05,0,0,0.05,53.95,0)" xlink:href="#bz"/><use transform="matrix(0.05,0,0,0.05,58.95,0)" xlink:href="#bu"/><use transform="matrix(0.05,0,0,0.05,68.95,0)" xlink:href="#bE"/><use transform="matrix(0.05,0,0,0.05,81.9,0)" xlink:href="#br"/><use transform="matrix(0.05,0,0,0.05,91.9,0)" xlink:href="#bD"/><use transform="matrix(0.05,0,0,0.05,101.9,0)" xlink:href="#bv"/><use transform="matrix(0.05,0,0,0.05,111.9,0)" xlink:href="#br"/><use transform="matrix(0.05,0,0,0.05,121.9,0)" xlink:href="#bs"/></g><path fill="#333" d="M101-234c-31-9-42 10-38 44h38v23H63V0H32v-167H5v-23h27c-7-52 17-82 69-68v24" id="bF"/><g id="Z"><use transform="matrix(0.05,0,0,0.05,0,0)" xlink:href="#bt"/><use transform="matrix(0.05,0,0,0.05,3.95,0)" xlink:href="#bu"/><use transform="matrix(0.05,0,0,0.05,13.949999999999998,0)" xlink:href="#bF"/><use transform="matrix(0.05,0,0,0.05,18.95,0)" xlink:href="#bp"/></g><path fill="#333" d="M30-248c118-7 216 8 213 122C240-48 200 0 122 0H30v-248zM63-27c89 8 146-16 146-99s-60-101-146-95v194" id="bG"/><path fill="#333" d="M59-47c-2 24 18 29 38 22v24C64 9 27 4 27-40v-127H5v-23h24l9-43h21v43h35v23H59v120" id="bH"/><g id="aa"><use transform="matrix(0.05,0,0,0.05,0,0)" xlink:href="#br"/><use transform="matrix(0.05,0,0,0.05,10,0)" xlink:href="#bw"/><use transform="matrix(0.05,0,0,0.05,19,0)" xlink:href="#br"/><use transform="matrix(0.05,0,0,0.05,29,0)" xlink:href="#bs"/><use transform="matrix(0.05,0,0,0.05,34.95,0)" xlink:href="#bA"/><use transform="matrix(0.05,0,0,0.05,43.95,0)" xlink:href="#bt"/><use transform="matrix(0.05,0,0,0.05,47.900000000000006,0)" xlink:href="#bC"/><use transform="matrix(0.05,0,0,0.05,56.900000000000006,0)" xlink:href="#br"/><use transform="matrix(0.05,0,0,0.05,66.9,0)" xlink:href="#bG"/><use transform="matrix(0.05,0,0,0.05,79.85000000000001,0)" xlink:href="#br"/><use transform="matrix(0.05,0,0,0.05,89.85000000000001,0)" xlink:href="#bH"/><use transform="matrix(0.05,0,0,0.05,94.85000000000001,0)" xlink:href="#bD"/><use transform="matrix(0.05,0,0,0.05,104.85000000000001,0)" xlink:href="#bt"/><use transform="matrix(0.05,0,0,0.05,108.80000000000001,0)" xlink:href="#bx"/><use transform="matrix(0.05,0,0,0.05,112.75,0)" xlink:href="#bC"/></g><g id="ab"><use transform="matrix(0.05,0,0,0.05,0,0)" xlink:href="#bC"/><use transform="matrix(0.05,0,0,0.05,9,0)" xlink:href="#bH"/><use transform="matrix(0.05,0,0,0.05,14,0)" xlink:href="#bD"/><use transform="matrix(0.05,0,0,0.05,24,0)" xlink:href="#bH"/><use transform="matrix(0.05,0,0,0.05,29,0)" xlink:href="#bt"/><use transform="matrix(0.05,0,0,0.05,32.95,0)" xlink:href="#bC"/><use transform="matrix(0.05,0,0,0.05,41.95,0)" xlink:href="#bH"/><use transform="matrix(0.05,0,0,0.05,46.95,0)" xlink:href="#bt"/><use transform="matrix(0.05,0,0,0.05,50.900000000000006,0)" xlink:href="#bA"/><use transform="matrix(0.05,0,0,0.05,59.900000000000006,0)" xlink:href="#bC"/></g><g id="ac"><use transform="matrix(0.05,0,0,0.05,0,0)" xlink:href="#bs"/><use transform="matrix(0.05,0,0,0.05,5.95,0)" xlink:href="#br"/><use transform="matrix(0.05,0,0,0.05,15.949999999999998,0)" xlink:href="#by"/><use transform="matrix(0.05,0,0,0.05,25.950000000000003,0)" xlink:href="#bt"/><use transform="matrix(0.05,0,0,0.05,29.899999999999995,0)" xlink:href="#bC"/><use transform="matrix(0.05,0,0,0.05,38.9,0)" xlink:href="#bH"/><use transform="matrix(0.05,0,0,0.05,43.9,0)" xlink:href="#br"/><use transform="matrix(0.05,0,0,0.05,53.900000000000006,0)" xlink:href="#bs"/></g><path fill="#333" d="M115-194c55 1 70 41 70 98S169 2 115 4C84 4 66-9 55-30l1 105H24l-1-265h31l2 30c10-21 28-34 59-34zm-8 174c40 0 45-34 45-75s-6-73-45-74c-42 0-51 32-51 76 0 43 10 73 51 73" id="bI"/><g id="ad"><use transform="matrix(0.05,0,0,0.05,0,0)" xlink:href="#bI"/><use transform="matrix(0.05,0,0,0.05,10,0)" xlink:href="#bs"/><use transform="matrix(0.05,0,0,0.05,15.949999999999998,0)" xlink:href="#bp"/><use transform="matrix(0.05,0,0,0.05,25.950000000000003,0)" xlink:href="#bF"/><use transform="matrix(0.05,0,0,0.05,30.950000000000003,0)" xlink:href="#bt"/><use transform="matrix(0.05,0,0,0.05,34.9,0)" xlink:href="#bx"/><use transform="matrix(0.05,0,0,0.05,38.85,0)" xlink:href="#br"/></g><g id="ae"><use transform="matrix(0.05,0,0,0.05,0,0)" xlink:href="#bx"/><use transform="matrix(0.05,0,0,0.05,3.95,0)" xlink:href="#bp"/><use transform="matrix(0.05,0,0,0.05,13.949999999999998,0)" xlink:href="#by"/><use transform="matrix(0.05,0,0,0.05,23.95,0)" xlink:href="#bt"/><use transform="matrix(0.05,0,0,0.05,27.899999999999995,0)" xlink:href="#bu"/></g><path fill="#333" d="M115-194c53 0 69 39 70 98 0 66-23 100-70 100C84 3 66-7 56-30L54 0H23l1-261h32v101c10-23 28-34 59-34zm-8 174c40 0 45-34 45-75 0-40-5-75-45-74-42 0-51 32-51 76 0 43 10 73 51 73" id="bJ"/><g id="af"><use transform="matrix(0.05,0,0,0.05,0,0)" xlink:href="#bx"/><use transform="matrix(0.05,0,0,0.05,3.95,0)" xlink:href="#br"/><use transform="matrix(0.05,0,0,0.05,13.949999999999998,0)" xlink:href="#bD"/><use transform="matrix(0.05,0,0,0.05,23.95,0)" xlink:href="#bv"/><use transform="matrix(0.05,0,0,0.05,33.95,0)" xlink:href="#br"/><use transform="matrix(0.05,0,0,0.05,43.95,0)" xlink:href="#bs"/><use transform="matrix(0.05,0,0,0.05,49.900000000000006,0)" xlink:href="#bJ"/><use transform="matrix(0.05,0,0,0.05,59.900000000000006,0)" xlink:href="#bp"/><use transform="matrix(0.05,0,0,0.05,69.9,0)" xlink:href="#bD"/><use transform="matrix(0.05,0,0,0.05,79.9,0)" xlink:href="#bs"/><use transform="matrix(0.05,0,0,0.05,85.85000000000001,0)" xlink:href="#bv"/></g><path fill="#333" d="M233-177c-1 41-23 64-60 70L243 0h-38l-65-103H63V0H30v-248c88 3 205-21 203 71zM63-129c60-2 137 13 137-47 0-61-80-42-137-45v92" id="bK"/><g id="ag"><use transform="matrix(0.05,0,0,0.05,0,0)" xlink:href="#by"/><use transform="matrix(0.05,0,0,0.05,10,0)" xlink:href="#br"/><use transform="matrix(0.05,0,0,0.05,20,0)" xlink:href="#bu"/><use transform="matrix(0.05,0,0,0.05,30,0)" xlink:href="#br"/><use transform="matrix(0.05,0,0,0.05,40,0)" xlink:href="#bs"/><use transform="matrix(0.05,0,0,0.05,45.95,0)" xlink:href="#bD"/><use transform="matrix(0.05,0,0,0.05,55.95,0)" xlink:href="#bH"/><use transform="matrix(0.05,0,0,0.05,60.95,0)" xlink:href="#bp"/><use transform="matrix(0.05,0,0,0.05,70.95,0)" xlink:href="#bs"/><use transform="matrix(0.05,0,0,0.05,76.9,0)" xlink:href="#bK"/><use transform="matrix(0.05,0,0,0.05,89.85000000000001,0)" xlink:href="#br"/><use transform="matrix(0.05,0,0,0.05,99.85000000000001,0)" xlink:href="#bC"/><use transform="matrix(0.05,0,0,0.05,108.85000000000001,0)" xlink:href="#bB"/><use transform="matrix(0.05,0,0,0.05,118.85000000000001,0)" xlink:href="#bx"/><use transform="matrix(0.05,0,0,0.05,122.80000000000001,0)" xlink:href="#bH"/><use transform="matrix(0.05,0,0,0.05,127.80000000000001,0)" xlink:href="#bC"/></g><g id="ah"><use transform="matrix(0.05,0,0,0.05,0,0)" xlink:href="#by"/><use transform="matrix(0.05,0,0,0.05,10,0)" xlink:href="#br"/><use transform="matrix(0.05,0,0,0.05,20,0)" xlink:href="#bu"/><use transform="matrix(0.05,0,0,0.05,30,0)" xlink:href="#br"/><use transform="matrix(0.05,0,0,0.05,40,0)" xlink:href="#bs"/><use transform="matrix(0.05,0,0,0.05,45.95,0)" xlink:href="#bD"/><use transform="matrix(0.05,0,0,0.05,55.95,0)" xlink:href="#bH"/><use transform="matrix(0.05,0,0,0.05,60.95,0)" xlink:href="#bp"/><use transform="matrix(0.05,0,0,0.05,70.95,0)" xlink:href="#bs"/></g><path fill="#333" d="M206 0h-36l-40-164L89 0H53L-1-190h32L70-26l43-164h34l41 164 42-164h31" id="bL"/><path fill="#333" d="M143 0L79-87 56-68V0H24v-261h32v163l83-92h37l-77 82L181 0h-38" id="bM"/><g id="ai"><use transform="matrix(0.05,0,0,0.05,0,0)" xlink:href="#bL"/><use transform="matrix(0.05,0,0,0.05,12.950000000000001,0)" xlink:href="#bp"/><use transform="matrix(0.05,0,0,0.05,22.950000000000003,0)" xlink:href="#bs"/><use transform="matrix(0.05,0,0,0.05,28.900000000000002,0)" xlink:href="#bM"/><use transform="matrix(0.05,0,0,0.05,37.900000000000006,0)" xlink:href="#bp"/><use transform="matrix(0.05,0,0,0.05,47.900000000000006,0)" xlink:href="#bB"/><use transform="matrix(0.05,0,0,0.05,57.900000000000006,0)" xlink:href="#bH"/></g></defs></g></svg>